
<global>
amp_veltrack=0
ampeg_attack=0.01
ampeg_release=0.25
xf_cccurve=gain
xfin_hicc1=127
xfout_hicc1=127
xfout_locc1=127
</global>

<group>
group_label=RR1
seq_length=8
seq_position=1

<region>
hivel=127
key=A#3
lovel=85
offset=317
sample=Alto_staccatissimo_FF_A#3_RR1.opus
tune=+1
</region>

<region>
hivel=127
key=A#4
lovel=85
offset=42
sample=Alto_staccatissimo_FF_A#4_RR1.opus
tune=+10
</region>

<region>
hivel=127
key=A3
lovel=85
offset=372
sample=Alto_staccatissimo_FF_A3_RR1.opus
tune=+4
</region>

<region>
hivel=127
key=A4
lovel=85
offset=184
sample=Alto_staccatissimo_FF_A4_RR1.opus
tune=+17
</region>

<region>
hikey=B5
hivel=127
lokey=A5
lovel=85
pitch_keycenter=A5
sample=Alto_staccatissimo_FF_A5_RR1.opus
tune=+2
</region>

<region>
hivel=127
key=B3
lovel=85
offset=515
sample=Alto_staccatissimo_FF_B3_RR1.opus
tune=+7
</region>

<region>
hivel=127
key=B4
lovel=85
offset=11
sample=Alto_staccatissimo_FF_B4_RR1.opus
tune=+21
</region>

<region>
hivel=127
key=C#3
lovel=85
sample=Alto_staccatissimo_FF_C#3_RR1.opus
tune=+3
</region>

<region>
hivel=127
key=C#4
lovel=85
sample=Alto_staccatissimo_FF_C#4_RR1.opus
tune=+9
</region>

<region>
hivel=127
key=C#5
lovel=85
sample=Alto_staccatissimo_FF_C#5_RR1.opus
tune=+2
</region>

<region>
hivel=127
key=C4
lovel=85
offset=275
sample=Alto_staccatissimo_FF_C4_RR1.opus
tune=+18
</region>

<region>
hivel=127
key=C5
lovel=85
sample=Alto_staccatissimo_FF_C5_RR1.opus
tune=+12
</region>

<region>
hivel=127
key=D#3
lovel=85
sample=Alto_staccatissimo_FF_D#3_RR1.opus
tune=+42
</region>

<region>
hivel=127
key=D#4
lovel=85
sample=Alto_staccatissimo_FF_D#4_RR1.opus
tune=+3
</region>

<region>
hivel=127
key=D#5
lovel=85
sample=Alto_staccatissimo_FF_D#5_RR1.opus
tune=-71
</region>

<region>
hivel=127
key=D3
lovel=85
sample=Alto_staccatissimo_FF_D3_RR1.opus
tune=-6
</region>

<region>
hivel=127
key=D4
lovel=85
offset=29
sample=Alto_staccatissimo_FF_D4_RR1.opus
tune=+6
</region>

<region>
hivel=127
key=D5
lovel=85
sample=Alto_staccatissimo_FF_D5_RR1.opus
tune=-81
</region>

<region>
hivel=127
key=E3
lovel=85
sample=Alto_staccatissimo_FF_E3_RR1.opus
tune=+5
</region>

<region>
hivel=127
key=E4
lovel=85
sample=Alto_staccatissimo_FF_E4_RR1.opus
tune=+13
</region>

<region>
hivel=127
key=E5
lovel=85
sample=Alto_staccatissimo_FF_E5_RR1.opus
tune=-7
</region>

<region>
hivel=127
key=F#3
lovel=85
offset=1156
sample=Alto_staccatissimo_FF_F#3_RR1.opus
tune=+1
</region>

<region>
hivel=127
key=F#4
lovel=85
offset=476
sample=Alto_staccatissimo_FF_F#4_RR1.opus
tune=+4
</region>

<region>
hivel=127
key=F#5
lovel=85
sample=Alto_staccatissimo_FF_F#5_RR1.opus
tune=-4
</region>

<region>
hivel=127
key=F3
lovel=85
offset=3274
sample=Alto_staccatissimo_FF_F3_RR1.opus
tune=+16
</region>

<region>
hivel=127
key=F4
lovel=85
offset=4950
sample=Alto_staccatissimo_FF_F4_RR1.opus
tune=+34
</region>

<region>
hivel=127
key=F5
lovel=85
sample=Alto_staccatissimo_FF_F5_RR1.opus
tune=+24
</region>

<region>
hivel=127
key=G#3
lovel=85
offset=922
sample=Alto_staccatissimo_FF_G#3_RR1.opus
tune=+6
</region>

<region>
hivel=127
key=G#4
lovel=85
offset=135
sample=Alto_staccatissimo_FF_G#4_RR1.opus
tune=+1
</region>

<region>
hivel=127
key=G#5
lovel=85
sample=Alto_staccatissimo_FF_G#5_RR1.opus
</region>

<region>
hivel=127
key=G3
lovel=85
offset=1070
sample=Alto_staccatissimo_FF_G3_RR1.opus
tune=-5
</region>

<region>
hivel=127
key=G4
lovel=85
offset=293
sample=Alto_staccatissimo_FF_G4_RR1.opus
tune=+12
</region>

<region>
hivel=127
key=G5
lovel=85
sample=Alto_staccatissimo_FF_G5_RR1.opus
tune=+6
</region>

<region>
hivel=84
key=A#3
lovel=43
offset=774
sample=Alto_staccatissimo_MF_A#3_RR1.opus
tune=+1
</region>

<region>
hivel=84
key=A#4
lovel=43
offset=295
sample=Alto_staccatissimo_MF_A#4_RR1.opus
tune=+1
</region>

<region>
hivel=84
key=A3
lovel=43
offset=906
sample=Alto_staccatissimo_MF_A3_RR1.opus
tune=+14
</region>

<region>
hivel=84
key=A4
lovel=43
offset=2338
sample=Alto_staccatissimo_MF_A4_RR1.opus
tune=+1
</region>

<region>
hikey=B5
hivel=84
lokey=A5
lovel=43
pitch_keycenter=A5
sample=Alto_staccatissimo_MF_A5_RR1.opus
tune=+6
</region>

<region>
hivel=84
key=B3
lovel=43
offset=324
sample=Alto_staccatissimo_MF_B3_RR1.opus
tune=+13
</region>

<region>
hivel=84
key=B4
lovel=43
offset=118
sample=Alto_staccatissimo_MF_B4_RR1.opus
tune=+14
</region>

<region>
hivel=84
key=C#3
lovel=43
sample=Alto_staccatissimo_MF_C#3_RR1.opus
tune=+5
</region>

<region>
hivel=84
key=C#4
lovel=43
offset=404
sample=Alto_staccatissimo_MF_C#4_RR1.opus
tune=-2
</region>

<region>
hivel=84
key=C#5
lovel=43
offset=621
sample=Alto_staccatissimo_MF_C#5_RR1.opus
</region>

<region>
hivel=84
key=C4
lovel=43
offset=78
sample=Alto_staccatissimo_MF_C4_RR1.opus
tune=+10
</region>

<region>
hivel=84
key=C5
lovel=43
offset=168
sample=Alto_staccatissimo_MF_C5_RR1.opus
tune=-69
</region>

<region>
hivel=84
key=D#3
lovel=43
offset=196
sample=Alto_staccatissimo_MF_D#3_RR1.opus
tune=+26
</region>

<region>
hivel=84
key=D#4
lovel=43
offset=480
sample=Alto_staccatissimo_MF_D#4_RR1.opus
tune=+16
</region>

<region>
hivel=84
key=D#5
lovel=43
sample=Alto_staccatissimo_MF_D#5_RR1.opus
tune=+2
</region>

<region>
hivel=84
key=D3
lovel=43
sample=Alto_staccatissimo_MF_D3_RR1.opus
tune=+6
</region>

<region>
hivel=84
key=D4
lovel=43
offset=36
sample=Alto_staccatissimo_MF_D4_RR1.opus
tune=+14
</region>

<region>
hivel=84
key=D5
lovel=43
sample=Alto_staccatissimo_MF_D5_RR1.opus
tune=+12
</region>

<region>
hivel=84
key=E3
lovel=43
offset=2212
sample=Alto_staccatissimo_MF_E3_RR1.opus
tune=+8
</region>

<region>
hivel=84
key=E4
lovel=43
sample=Alto_staccatissimo_MF_E4_RR1.opus
tune=+13
</region>

<region>
hivel=84
key=E5
lovel=43
sample=Alto_staccatissimo_MF_E5_RR1.opus
tune=-5
</region>

<region>
hivel=84
key=F#3
lovel=43
offset=6308
sample=Alto_staccatissimo_MF_F#3_RR1.opus
tune=-6
</region>

<region>
hivel=84
key=F#4
lovel=43
offset=689
sample=Alto_staccatissimo_MF_F#4_RR1.opus
tune=+25
</region>

<region>
hivel=84
key=F#5
lovel=43
sample=Alto_staccatissimo_MF_F#5_RR1.opus
tune=+9
</region>

<region>
hivel=84
key=F3
lovel=43
offset=6072
sample=Alto_staccatissimo_MF_F3_RR1.opus
tune=-6
</region>

<region>
hivel=84
key=F4
lovel=43
offset=1063
sample=Alto_staccatissimo_MF_F4_RR1.opus
tune=+20
</region>

<region>
hivel=84
key=F5
lovel=43
offset=111
sample=Alto_staccatissimo_MF_F5_RR1.opus
tune=+17
</region>

<region>
hivel=84
key=G#3
lovel=43
offset=742
sample=Alto_staccatissimo_MF_G#3_RR1.opus
tune=+2
</region>

<region>
hivel=84
key=G#4
lovel=43
offset=787
sample=Alto_staccatissimo_MF_G#4_RR1.opus
tune=+8
</region>

<region>
hivel=84
key=G#5
lovel=43
sample=Alto_staccatissimo_MF_G#5_RR1.opus
tune=+5
</region>

<region>
hivel=84
key=G3
lovel=43
offset=4685
sample=Alto_staccatissimo_MF_G3_RR1.opus
tune=+1
</region>

<region>
hivel=84
key=G4
lovel=43
offset=775
sample=Alto_staccatissimo_MF_G4_RR1.opus
tune=+22
</region>

<region>
hivel=84
key=G5
lovel=43
sample=Alto_staccatissimo_MF_G5_RR1.opus
tune=-2
</region>

<region>
hivel=42
key=A#3
lovel=0
offset=782
sample=Alto_staccatissimo_PP_A#3_RR1.opus
tune=+5
</region>

<region>
hivel=42
key=A#4
lovel=0
offset=144
sample=Alto_staccatissimo_PP_A#4_RR1.opus
tune=+20
</region>

<region>
hivel=42
key=A3
lovel=0
offset=864
sample=Alto_staccatissimo_PP_A3_RR1.opus
tune=-2
</region>

<region>
hivel=42
key=A4
lovel=0
offset=289
sample=Alto_staccatissimo_PP_A4_RR1.opus
tune=+2
</region>

<region>
hikey=B5
hivel=42
lokey=A5
lovel=0
offset=121
pitch_keycenter=A5
sample=Alto_staccatissimo_PP_A5_RR1.opus
tune=-4
</region>

<region>
hivel=42
key=B3
lovel=0
sample=Alto_staccatissimo_PP_B3_RR1.opus
</region>

<region>
hivel=42
key=B4
lovel=0
offset=11
sample=Alto_staccatissimo_PP_B4_RR1.opus
tune=-1
</region>

<region>
hivel=42
key=C#3
lovel=0
offset=12836
sample=Alto_staccatissimo_PP_C#3_RR1.opus
tune=-6
</region>

<region>
hivel=42
key=C#4
lovel=0
offset=51
sample=Alto_staccatissimo_PP_C#4_RR1.opus
tune=+18
</region>

<region>
hivel=42
key=C#5
lovel=0
sample=Alto_staccatissimo_PP_C#5_RR1.opus
tune=+19
</region>

<region>
hivel=42
key=C4
lovel=0
offset=246
sample=Alto_staccatissimo_PP_C4_RR1.opus
tune=+11
</region>

<region>
hivel=42
key=C5
lovel=0
sample=Alto_staccatissimo_PP_C5_RR1.opus
tune=+20
</region>

<region>
hivel=42
key=D#3
lovel=0
offset=3530
sample=Alto_staccatissimo_PP_D#3_RR1.opus
tune=+3
</region>

<region>
hivel=42
key=D#4
lovel=0
sample=Alto_staccatissimo_PP_D#4_RR1.opus
tune=+14
</region>

<region>
hivel=42
key=D#5
lovel=0
sample=Alto_staccatissimo_PP_D#5_RR1.opus
tune=+18
</region>

<region>
hivel=42
key=D3
lovel=0
offset=5330
sample=Alto_staccatissimo_PP_D3_RR1.opus
tune=-10
</region>

<region>
hivel=42
key=D4
lovel=0
offset=5
sample=Alto_staccatissimo_PP_D4_RR1.opus
tune=+9
</region>

<region>
hivel=42
key=D5
lovel=0
sample=Alto_staccatissimo_PP_D5_RR1.opus
tune=+13
</region>

<region>
hivel=42
key=E3
lovel=0
offset=3286
sample=Alto_staccatissimo_PP_E3_RR1.opus
tune=+25
</region>

<region>
hivel=42
key=E4
lovel=0
sample=Alto_staccatissimo_PP_E4_RR1.opus
tune=+10
</region>

<region>
hivel=42
key=E5
lovel=0
sample=Alto_staccatissimo_PP_E5_RR1.opus
tune=-5
</region>

<region>
hivel=42
key=F#3
lovel=0
offset=5612
sample=Alto_staccatissimo_PP_F#3_RR1.opus
tune=+2
</region>

<region>
hivel=42
key=F#4
lovel=0
offset=67
sample=Alto_staccatissimo_PP_F#4_RR1.opus
tune=+7
</region>

<region>
hivel=42
key=F#5
lovel=0
sample=Alto_staccatissimo_PP_F#5_RR1.opus
tune=-6
</region>

<region>
hivel=42
key=F3
lovel=0
offset=4512
sample=Alto_staccatissimo_PP_F3_RR1.opus
tune=+25
</region>

<region>
hivel=42
key=F4
lovel=0
offset=114
sample=Alto_staccatissimo_PP_F4_RR1.opus
tune=+12
</region>

<region>
hivel=42
key=F5
lovel=0
sample=Alto_staccatissimo_PP_F5_RR1.opus
tune=+9
</region>

<region>
hivel=42
key=G#3
lovel=0
offset=705
sample=Alto_staccatissimo_PP_G#3_RR1.opus
</region>

<region>
hivel=42
key=G#4
lovel=0
offset=2
sample=Alto_staccatissimo_PP_G#4_RR1.opus
tune=+5
</region>

<region>
hivel=42
key=G#5
lovel=0
offset=358
sample=Alto_staccatissimo_PP_G#5_RR1.opus
tune=+4
</region>

<region>
hivel=42
key=G3
lovel=0
offset=1313
sample=Alto_staccatissimo_PP_G3_RR1.opus
tune=+2
</region>

<region>
hivel=42
key=G4
lovel=0
offset=393
sample=Alto_staccatissimo_PP_G4_RR1.opus
tune=+5
</region>

<region>
hivel=42
key=G5
lovel=0
sample=Alto_staccatissimo_PP_G5_RR1.opus
tune=-1
</region>
</group>

<group>
group_label=RR2
seq_length=8
seq_position=2

<region>
hivel=127
key=A#3
lovel=85
offset=359
sample=Alto_staccatissimo_FF_A#3_RR2.opus
tune=-7
</region>

<region>
hivel=127
key=A#4
lovel=85
offset=173
sample=Alto_staccatissimo_FF_A#4_RR2.opus
tune=+6
</region>

<region>
hivel=127
key=A3
lovel=85
offset=250
sample=Alto_staccatissimo_FF_A3_RR2.opus
tune=+9
</region>

<region>
hivel=127
key=A4
lovel=85
offset=181
sample=Alto_staccatissimo_FF_A4_RR2.opus
tune=+15
</region>

<region>
hikey=B5
hivel=127
lokey=A5
lovel=85
pitch_keycenter=A5
sample=Alto_staccatissimo_FF_A5_RR2.opus
tune=+4
</region>

<region>
hivel=127
key=B3
lovel=85
offset=268
sample=Alto_staccatissimo_FF_B3_RR2.opus
tune=+2
</region>

<region>
hivel=127
key=B4
lovel=85
offset=123
sample=Alto_staccatissimo_FF_B4_RR2.opus
tune=+19
</region>

<region>
hivel=127
key=C#3
lovel=85
sample=Alto_staccatissimo_FF_C#3_RR2.opus
tune=+3
</region>

<region>
hivel=127
key=C#4
lovel=85
sample=Alto_staccatissimo_FF_C#4_RR2.opus
tune=+4
</region>

<region>
hivel=127
key=C#5
lovel=85
sample=Alto_staccatissimo_FF_C#5_RR2.opus
tune=+2
</region>

<region>
hivel=127
key=C4
lovel=85
offset=103
sample=Alto_staccatissimo_FF_C4_RR2.opus
tune=+6
</region>

<region>
hivel=127
key=C5
lovel=85
sample=Alto_staccatissimo_FF_C5_RR2.opus
tune=+8
</region>

<region>
hivel=127
key=D#3
lovel=85
sample=Alto_staccatissimo_FF_D#3_RR2.opus
tune=+35
</region>

<region>
hivel=127
key=D#4
lovel=85
offset=292
sample=Alto_staccatissimo_FF_D#4_RR2.opus
tune=+9
</region>

<region>
hivel=127
key=D#5
lovel=85
sample=Alto_staccatissimo_FF_D#5_RR2.opus
tune=-12
</region>

<region>
hivel=127
key=D3
lovel=85
sample=Alto_staccatissimo_FF_D3_RR2.opus
tune=-7
</region>

<region>
hivel=127
key=D4
lovel=85
sample=Alto_staccatissimo_FF_D4_RR2.opus
tune=+19
</region>

<region>
hivel=127
key=D5
lovel=85
sample=Alto_staccatissimo_FF_D5_RR2.opus
tune=+2
</region>

<region>
hivel=127
key=E3
lovel=85
sample=Alto_staccatissimo_FF_E3_RR2.opus
tune=+5
</region>

<region>
hivel=127
key=E4
lovel=85
sample=Alto_staccatissimo_FF_E4_RR2.opus
tune=+1
</region>

<region>
hivel=127
key=E5
lovel=85
sample=Alto_staccatissimo_FF_E5_RR2.opus
tune=+1
</region>

<region>
hivel=127
key=F#3
lovel=85
offset=1226
sample=Alto_staccatissimo_FF_F#3_RR2.opus
tune=+6
</region>

<region>
hivel=127
key=F#4
lovel=85
offset=39
sample=Alto_staccatissimo_FF_F#4_RR2.opus
tune=-1
</region>

<region>
hivel=127
key=F#5
lovel=85
sample=Alto_staccatissimo_FF_F#5_RR2.opus
tune=+5
</region>

<region>
hivel=127
key=F3
lovel=85
sample=Alto_staccatissimo_FF_F3_RR2.opus
tune=+40
</region>

<region>
hivel=127
key=F4
lovel=85
offset=340
sample=Alto_staccatissimo_FF_F4_RR2.opus
tune=+10
</region>

<region>
hivel=127
key=F5
lovel=85
sample=Alto_staccatissimo_FF_F5_RR2.opus
tune=+1
</region>

<region>
hivel=127
key=G#3
lovel=85
offset=473
sample=Alto_staccatissimo_FF_G#3_RR2.opus
tune=+7
</region>

<region>
hivel=127
key=G#4
lovel=85
offset=128
sample=Alto_staccatissimo_FF_G#4_RR2.opus
</region>

<region>
hivel=127
key=G#5
lovel=85
sample=Alto_staccatissimo_FF_G#5_RR2.opus
tune=+3
</region>

<region>
hivel=127
key=G3
lovel=85
offset=1274
sample=Alto_staccatissimo_FF_G3_RR2.opus
tune=+9
</region>

<region>
hivel=127
key=G4
lovel=85
offset=260
sample=Alto_staccatissimo_FF_G4_RR2.opus
tune=+3
</region>

<region>
hivel=127
key=G5
lovel=85
sample=Alto_staccatissimo_FF_G5_RR2.opus
tune=+12
</region>

<region>
hivel=84
key=A#3
lovel=43
offset=575
sample=Alto_staccatissimo_MF_A#3_RR2.opus
tune=+2
</region>

<region>
hivel=84
key=A#4
lovel=43
offset=673
sample=Alto_staccatissimo_MF_A#4_RR2.opus
tune=+26
</region>

<region>
hivel=84
key=A3
lovel=43
offset=900
sample=Alto_staccatissimo_MF_A3_RR2.opus
tune=+22
</region>

<region>
hivel=84
key=A4
lovel=43
offset=427
sample=Alto_staccatissimo_MF_A4_RR2.opus
tune=-1
</region>

<region>
hikey=B5
hivel=84
lokey=A5
lovel=43
pitch_keycenter=A5
sample=Alto_staccatissimo_MF_A5_RR2.opus
tune=-1
</region>

<region>
hivel=84
key=B3
lovel=43
offset=323
sample=Alto_staccatissimo_MF_B3_RR2.opus
tune=+9
</region>

<region>
hivel=84
key=B4
lovel=43
offset=112
sample=Alto_staccatissimo_MF_B4_RR2.opus
tune=+14
</region>

<region>
hivel=84
key=C#3
lovel=43
sample=Alto_staccatissimo_MF_C#3_RR2.opus
tune=+6
</region>

<region>
hivel=84
key=C#4
lovel=43
offset=232
sample=Alto_staccatissimo_MF_C#4_RR2.opus
tune=+8
</region>

<region>
hivel=84
key=C#5
lovel=43
sample=Alto_staccatissimo_MF_C#5_RR2.opus
tune=+25
</region>

<region>
hivel=84
key=C4
lovel=43
offset=92
sample=Alto_staccatissimo_MF_C4_RR2.opus
tune=+8
</region>

<region>
hivel=84
key=C5
lovel=43
sample=Alto_staccatissimo_MF_C5_RR2.opus
tune=-2
</region>

<region>
hivel=84
key=D#3
lovel=43
sample=Alto_staccatissimo_MF_D#3_RR2.opus
tune=+11
</region>

<region>
hivel=84
key=D#4
lovel=43
offset=188
sample=Alto_staccatissimo_MF_D#4_RR2.opus
</region>

<region>
hivel=84
key=D#5
lovel=43
sample=Alto_staccatissimo_MF_D#5_RR2.opus
tune=+3
</region>

<region>
hivel=84
key=D3
lovel=43
sample=Alto_staccatissimo_MF_D3_RR2.opus
tune=+2
</region>

<region>
hivel=84
key=D4
lovel=43
offset=160
sample=Alto_staccatissimo_MF_D4_RR2.opus
tune=+20
</region>

<region>
hivel=84
key=D5
lovel=43
sample=Alto_staccatissimo_MF_D5_RR2.opus
tune=-1
</region>

<region>
hivel=84
key=E3
lovel=43
sample=Alto_staccatissimo_MF_E3_RR2.opus
tune=+13
</region>

<region>
hivel=84
key=E4
lovel=43
sample=Alto_staccatissimo_MF_E4_RR2.opus
tune=+14
</region>

<region>
hivel=84
key=E5
lovel=43
sample=Alto_staccatissimo_MF_E5_RR2.opus
tune=+13
</region>

<region>
hivel=84
key=F#3
lovel=43
offset=5793
sample=Alto_staccatissimo_MF_F#3_RR2.opus
tune=-2
</region>

<region>
hivel=84
key=F#4
lovel=43
offset=571
sample=Alto_staccatissimo_MF_F#4_RR2.opus
</region>

<region>
hivel=84
key=F#5
lovel=43
sample=Alto_staccatissimo_MF_F#5_RR2.opus
tune=+6
</region>

<region>
hivel=84
key=F3
lovel=43
offset=5890
sample=Alto_staccatissimo_MF_F3_RR2.opus
tune=+11
</region>

<region>
hivel=84
key=F4
lovel=43
offset=1120
sample=Alto_staccatissimo_MF_F4_RR2.opus
tune=+27
</region>

<region>
hivel=84
key=F5
lovel=43
sample=Alto_staccatissimo_MF_F5_RR2.opus
tune=+13
</region>

<region>
hivel=84
key=G#3
lovel=43
offset=1157
sample=Alto_staccatissimo_MF_G#3_RR2.opus
tune=+1
</region>

<region>
hivel=84
key=G#4
lovel=43
offset=801
sample=Alto_staccatissimo_MF_G#4_RR2.opus
tune=+4
</region>

<region>
hivel=84
key=G#5
lovel=43
sample=Alto_staccatissimo_MF_G#5_RR2.opus
tune=+2
</region>

<region>
hivel=84
key=G3
lovel=43
offset=1843
sample=Alto_staccatissimo_MF_G3_RR2.opus
tune=+4
</region>

<region>
hivel=84
key=G4
lovel=43
offset=1279
sample=Alto_staccatissimo_MF_G4_RR2.opus
tune=+10
</region>

<region>
hivel=84
key=G5
lovel=43
sample=Alto_staccatissimo_MF_G5_RR2.opus
</region>

<region>
hivel=42
key=A#3
lovel=0
offset=814
sample=Alto_staccatissimo_PP_A#3_RR2.opus
tune=+9
</region>

<region>
hivel=42
key=A#4
lovel=0
offset=145
sample=Alto_staccatissimo_PP_A#4_RR2.opus
tune=+5
</region>

<region>
hivel=42
key=A3
lovel=0
offset=1066
sample=Alto_staccatissimo_PP_A3_RR2.opus
tune=+10
</region>

<region>
hivel=42
key=A4
lovel=0
offset=187
sample=Alto_staccatissimo_PP_A4_RR2.opus
tune=+2
</region>

<region>
hikey=B5
hivel=42
lokey=A5
lovel=0
pitch_keycenter=A5
sample=Alto_staccatissimo_PP_A5_RR2.opus
tune=+5
</region>

<region>
hivel=42
key=B3
lovel=0
offset=100
sample=Alto_staccatissimo_PP_B3_RR2.opus
tune=+1
</region>

<region>
hivel=42
key=B4
lovel=0
sample=Alto_staccatissimo_PP_B4_RR2.opus
tune=+14
</region>

<region>
hivel=42
key=C#3
lovel=0
sample=Alto_staccatissimo_PP_C#3_RR2.opus
tune=-7
</region>

<region>
hivel=42
key=C#4
lovel=0
offset=52
sample=Alto_staccatissimo_PP_C#4_RR2.opus
tune=+7
</region>

<region>
hivel=42
key=C#5
lovel=0
sample=Alto_staccatissimo_PP_C#5_RR2.opus
tune=+18
</region>

<region>
hivel=42
key=C4
lovel=0
offset=101
sample=Alto_staccatissimo_PP_C4_RR2.opus
tune=+8
</region>

<region>
hivel=42
key=C5
lovel=0
sample=Alto_staccatissimo_PP_C5_RR2.opus
tune=+22
</region>

<region>
hivel=42
key=D#3
lovel=0
offset=4120
sample=Alto_staccatissimo_PP_D#3_RR2.opus
tune=+24
</region>

<region>
hivel=42
key=D#4
lovel=0
offset=154
sample=Alto_staccatissimo_PP_D#4_RR2.opus
tune=+15
</region>

<region>
hivel=42
key=D#5
lovel=0
sample=Alto_staccatissimo_PP_D#5_RR2.opus
tune=+1
</region>

<region>
hivel=42
key=D3
lovel=0
offset=5320
sample=Alto_staccatissimo_PP_D3_RR2.opus
tune=-11
</region>

<region>
hivel=42
key=D4
lovel=0
sample=Alto_staccatissimo_PP_D4_RR2.opus
tune=+8
</region>

<region>
hivel=42
key=D5
lovel=0
sample=Alto_staccatissimo_PP_D5_RR2.opus
tune=+23
</region>

<region>
hivel=42
key=E3
lovel=0
sample=Alto_staccatissimo_PP_E3_RR2.opus
tune=+11
</region>

<region>
hivel=42
key=E4
lovel=0
sample=Alto_staccatissimo_PP_E4_RR2.opus
tune=+8
</region>

<region>
hivel=42
key=E5
lovel=0
sample=Alto_staccatissimo_PP_E5_RR2.opus
tune=+17
</region>

<region>
hivel=42
key=F#3
lovel=0
offset=4254
sample=Alto_staccatissimo_PP_F#3_RR2.opus
tune=+1
</region>

<region>
hivel=42
key=F#4
lovel=0
offset=317
sample=Alto_staccatissimo_PP_F#4_RR2.opus
</region>

<region>
hivel=42
key=F#5
lovel=0
sample=Alto_staccatissimo_PP_F#5_RR2.opus
tune=+1
</region>

<region>
hivel=42
key=F3
lovel=0
offset=3692
sample=Alto_staccatissimo_PP_F3_RR2.opus
tune=+30
</region>

<region>
hivel=42
key=F4
lovel=0
offset=98
sample=Alto_staccatissimo_PP_F4_RR2.opus
tune=+17
</region>

<region>
hivel=42
key=F5
lovel=0
sample=Alto_staccatissimo_PP_F5_RR2.opus
</region>

<region>
hivel=42
key=G#3
lovel=0
offset=485
sample=Alto_staccatissimo_PP_G#3_RR2.opus
tune=-1
</region>

<region>
hivel=42
key=G#4
lovel=0
offset=125
sample=Alto_staccatissimo_PP_G#4_RR2.opus
tune=+3
</region>

<region>
hivel=42
key=G#5
lovel=0
sample=Alto_staccatissimo_PP_G#5_RR2.opus
tune=+4
</region>

<region>
hivel=42
key=G3
lovel=0
offset=1794
sample=Alto_staccatissimo_PP_G3_RR2.opus
tune=+6
</region>

<region>
hivel=42
key=G4
lovel=0
offset=520
sample=Alto_staccatissimo_PP_G4_RR2.opus
tune=+6
</region>

<region>
hivel=42
key=G5
lovel=0
sample=Alto_staccatissimo_PP_G5_RR2.opus
tune=-1
</region>
</group>

<group>
group_label=RR3
seq_length=8
seq_position=3

<region>
hivel=127
key=A#3
lovel=85
offset=554
sample=Alto_staccatissimo_FF_A#3_RR3.opus
tune=-2
</region>

<region>
hivel=127
key=A#4
lovel=85
offset=141
sample=Alto_staccatissimo_FF_A#4_RR3.opus
tune=+10
</region>

<region>
hivel=127
key=A3
lovel=85
offset=277
sample=Alto_staccatissimo_FF_A3_RR3.opus
tune=+18
</region>

<region>
hivel=127
key=A4
lovel=85
offset=306
sample=Alto_staccatissimo_FF_A4_RR3.opus
tune=+18
</region>

<region>
hikey=B5
hivel=127
lokey=A5
lovel=85
pitch_keycenter=A5
sample=Alto_staccatissimo_FF_A5_RR3.opus
tune=+5
</region>

<region>
hivel=127
key=B3
lovel=85
offset=135
sample=Alto_staccatissimo_FF_B3_RR3.opus
tune=-4
</region>

<region>
hivel=127
key=B4
lovel=85
offset=14
sample=Alto_staccatissimo_FF_B4_RR3.opus
tune=+12
</region>

<region>
hivel=127
key=C#3
lovel=85
sample=Alto_staccatissimo_FF_C#3_RR3.opus
tune=+4
</region>

<region>
hivel=127
key=C#4
lovel=85
offset=47
sample=Alto_staccatissimo_FF_C#4_RR3.opus
tune=+9
</region>

<region>
hivel=127
key=C#5
lovel=85
sample=Alto_staccatissimo_FF_C#5_RR3.opus
tune=+7
</region>

<region>
hivel=127
key=C4
lovel=85
offset=96
sample=Alto_staccatissimo_FF_C4_RR3.opus
tune=+5
</region>

<region>
hivel=127
key=C5
lovel=85
sample=Alto_staccatissimo_FF_C5_RR3.opus
tune=-80
</region>

<region>
hivel=127
key=D#3
lovel=85
offset=36
sample=Alto_staccatissimo_FF_D#3_RR3.opus
tune=+23
</region>

<region>
hivel=127
key=D#4
lovel=85
offset=11
sample=Alto_staccatissimo_FF_D#4_RR3.opus
tune=+8
</region>

<region>
hivel=127
key=D#5
lovel=85
sample=Alto_staccatissimo_FF_D#5_RR3.opus
tune=+21
</region>

<region>
hivel=127
key=D3
lovel=85
offset=25
sample=Alto_staccatissimo_FF_D3_RR3.opus
tune=-4
</region>

<region>
hivel=127
key=D4
lovel=85
offset=180
sample=Alto_staccatissimo_FF_D4_RR3.opus
tune=+25
</region>

<region>
hivel=127
key=D5
lovel=85
sample=Alto_staccatissimo_FF_D5_RR3.opus
tune=-1
</region>

<region>
hivel=127
key=E3
lovel=85
offset=163
sample=Alto_staccatissimo_FF_E3_RR3.opus
tune=+6
</region>

<region>
hivel=127
key=E4
lovel=85
sample=Alto_staccatissimo_FF_E4_RR3.opus
tune=+11
</region>

<region>
hivel=127
key=E5
lovel=85
sample=Alto_staccatissimo_FF_E5_RR3.opus
</region>

<region>
hivel=127
key=F#3
lovel=85
offset=960
sample=Alto_staccatissimo_FF_F#3_RR3.opus
tune=+9
</region>

<region>
hivel=127
key=F#4
lovel=85
offset=429
sample=Alto_staccatissimo_FF_F#4_RR3.opus
tune=+3
</region>

<region>
hivel=127
key=F#5
lovel=85
sample=Alto_staccatissimo_FF_F#5_RR3.opus
tune=+1
</region>

<region>
hivel=127
key=F3
lovel=85
sample=Alto_staccatissimo_FF_F3_RR3.opus
tune=+34
</region>

<region>
hivel=127
key=F4
lovel=85
offset=377
sample=Alto_staccatissimo_FF_F4_RR3.opus
tune=+11
</region>

<region>
hivel=127
key=F5
lovel=85
sample=Alto_staccatissimo_FF_F5_RR3.opus
tune=+20
</region>

<region>
hivel=127
key=G#3
lovel=85
offset=265
sample=Alto_staccatissimo_FF_G#3_RR3.opus
tune=+1
</region>

<region>
hivel=127
key=G#4
lovel=85
offset=43
sample=Alto_staccatissimo_FF_G#4_RR3.opus
tune=+4
</region>

<region>
hivel=127
key=G#5
lovel=85
sample=Alto_staccatissimo_FF_G#5_RR3.opus
tune=+5
</region>

<region>
hivel=127
key=G3
lovel=85
offset=5026
sample=Alto_staccatissimo_FF_G3_RR3.opus
tune=+6
</region>

<region>
hivel=127
key=G4
lovel=85
offset=301
sample=Alto_staccatissimo_FF_G4_RR3.opus
tune=+2
</region>

<region>
hivel=127
key=G5
lovel=85
sample=Alto_staccatissimo_FF_G5_RR3.opus
tune=+18
</region>

<region>
hivel=84
key=A#3
lovel=43
offset=593
sample=Alto_staccatissimo_MF_A#3_RR3.opus
tune=+8
</region>

<region>
hivel=84
key=A#4
lovel=43
offset=473
sample=Alto_staccatissimo_MF_A#4_RR3.opus
tune=+9
</region>

<region>
hivel=84
key=A3
lovel=43
offset=1117
sample=Alto_staccatissimo_MF_A3_RR3.opus
tune=+11
</region>

<region>
hivel=84
key=A4
lovel=43
offset=538
sample=Alto_staccatissimo_MF_A4_RR3.opus
tune=+1
</region>

<region>
hikey=B5
hivel=84
lokey=A5
lovel=43
pitch_keycenter=A5
sample=Alto_staccatissimo_MF_A5_RR3.opus
tune=+5
</region>

<region>
hivel=84
key=B3
lovel=43
offset=134
sample=Alto_staccatissimo_MF_B3_RR3.opus
tune=+14
</region>

<region>
hivel=84
key=B4
lovel=43
offset=195
sample=Alto_staccatissimo_MF_B4_RR3.opus
tune=+8
</region>

<region>
hivel=84
key=C#3
lovel=43
sample=Alto_staccatissimo_MF_C#3_RR3.opus
tune=+4
</region>

<region>
hivel=84
key=C#4
lovel=43
offset=236
sample=Alto_staccatissimo_MF_C#4_RR3.opus
tune=+9
</region>

<region>
hivel=84
key=C#5
lovel=43
offset=141
sample=Alto_staccatissimo_MF_C#5_RR3.opus
tune=+14
</region>

<region>
hivel=84
key=C4
lovel=43
offset=97
sample=Alto_staccatissimo_MF_C4_RR3.opus
tune=+14
</region>

<region>
hivel=84
key=C5
lovel=43
offset=80
sample=Alto_staccatissimo_MF_C5_RR3.opus
tune=+2
</region>

<region>
hivel=84
key=D#3
lovel=43
sample=Alto_staccatissimo_MF_D#3_RR3.opus
tune=-11
</region>

<region>
hivel=84
key=D#4
lovel=43
sample=Alto_staccatissimo_MF_D#4_RR3.opus
tune=+8
</region>

<region>
hivel=84
key=D#5
lovel=43
sample=Alto_staccatissimo_MF_D#5_RR3.opus
tune=-5
</region>

<region>
hivel=84
key=D3
lovel=43
sample=Alto_staccatissimo_MF_D3_RR3.opus
tune=+3
</region>

<region>
hivel=84
key=D4
lovel=43
offset=353
sample=Alto_staccatissimo_MF_D4_RR3.opus
tune=+6
</region>

<region>
hivel=84
key=D5
lovel=43
sample=Alto_staccatissimo_MF_D5_RR3.opus
tune=+5
</region>

<region>
hivel=84
key=E3
lovel=43
sample=Alto_staccatissimo_MF_E3_RR3.opus
tune=+4
</region>

<region>
hivel=84
key=E4
lovel=43
sample=Alto_staccatissimo_MF_E4_RR3.opus
tune=+18
</region>

<region>
hivel=84
key=E5
lovel=43
sample=Alto_staccatissimo_MF_E5_RR3.opus
tune=+9
</region>

<region>
hivel=84
key=F#3
lovel=43
offset=1949
sample=Alto_staccatissimo_MF_F#3_RR3.opus
tune=-3
</region>

<region>
hivel=84
key=F#4
lovel=43
offset=719
sample=Alto_staccatissimo_MF_F#4_RR3.opus
tune=+1
</region>

<region>
hivel=84
key=F#5
lovel=43
sample=Alto_staccatissimo_MF_F#5_RR3.opus
tune=+12
</region>

<region>
hivel=84
key=F3
lovel=43
offset=4758
sample=Alto_staccatissimo_MF_F3_RR3.opus
tune=+12
</region>

<region>
hivel=84
key=F4
lovel=43
offset=3813
sample=Alto_staccatissimo_MF_F4_RR3.opus
tune=+18
</region>

<region>
hivel=84
key=F5
lovel=43
sample=Alto_staccatissimo_MF_F5_RR3.opus
tune=+17
</region>

<region>
hivel=84
key=G#3
lovel=43
offset=727
sample=Alto_staccatissimo_MF_G#3_RR3.opus
tune=+5
</region>

<region>
hivel=84
key=G#4
lovel=43
offset=236
sample=Alto_staccatissimo_MF_G#4_RR3.opus
tune=+4
</region>

<region>
hivel=84
key=G#5
lovel=43
sample=Alto_staccatissimo_MF_G#5_RR3.opus
tune=+4
</region>

<region>
hivel=84
key=G3
lovel=43
offset=5256
sample=Alto_staccatissimo_MF_G3_RR3.opus
tune=+2
</region>

<region>
hivel=84
key=G4
lovel=43
offset=655
sample=Alto_staccatissimo_MF_G4_RR3.opus
tune=+2
</region>

<region>
hivel=84
key=G5
lovel=43
sample=Alto_staccatissimo_MF_G5_RR3.opus
tune=+9
</region>

<region>
hivel=42
key=A#3
lovel=0
offset=997
sample=Alto_staccatissimo_PP_A#3_RR3.opus
tune=+6
</region>

<region>
hivel=42
key=A#4
lovel=0
offset=154
sample=Alto_staccatissimo_PP_A#4_RR3.opus
tune=+15
</region>

<region>
hivel=42
key=A3
lovel=0
offset=851
sample=Alto_staccatissimo_PP_A3_RR3.opus
tune=+6
</region>

<region>
hivel=42
key=A4
lovel=0
offset=413
sample=Alto_staccatissimo_PP_A4_RR3.opus
tune=+2
</region>

<region>
hikey=B5
hivel=42
lokey=A5
lovel=0
pitch_keycenter=A5
sample=Alto_staccatissimo_PP_A5_RR3.opus
tune=-2
</region>

<region>
hivel=42
key=B3
lovel=0
sample=Alto_staccatissimo_PP_B3_RR3.opus
</region>

<region>
hivel=42
key=B4
lovel=0
sample=Alto_staccatissimo_PP_B4_RR3.opus
tune=+13
</region>

<region>
hivel=42
key=C#3
lovel=0
offset=4624
sample=Alto_staccatissimo_PP_C#3_RR3.opus
tune=-5
</region>

<region>
hivel=42
key=C#4
lovel=0
offset=45
sample=Alto_staccatissimo_PP_C#4_RR3.opus
tune=+5
</region>

<region>
hivel=42
key=C#5
lovel=0
sample=Alto_staccatissimo_PP_C#5_RR3.opus
tune=+21
</region>

<region>
hivel=42
key=C4
lovel=0
sample=Alto_staccatissimo_PP_C4_RR3.opus
</region>

<region>
hivel=42
key=C5
lovel=0
sample=Alto_staccatissimo_PP_C5_RR3.opus
tune=+1
</region>

<region>
hivel=42
key=D#3
lovel=0
offset=4457
sample=Alto_staccatissimo_PP_D#3_RR3.opus
tune=+17
</region>

<region>
hivel=42
key=D#4
lovel=0
offset=3
sample=Alto_staccatissimo_PP_D#4_RR3.opus
tune=+10
</region>

<region>
hivel=42
key=D#5
lovel=0
sample=Alto_staccatissimo_PP_D#5_RR3.opus
tune=+5
</region>

<region>
hivel=42
key=D3
lovel=0
offset=4365
sample=Alto_staccatissimo_PP_D3_RR3.opus
tune=+6
</region>

<region>
hivel=42
key=D4
lovel=0
sample=Alto_staccatissimo_PP_D4_RR3.opus
tune=-1
</region>

<region>
hivel=42
key=D5
lovel=0
sample=Alto_staccatissimo_PP_D5_RR3.opus
tune=+8
</region>

<region>
hivel=42
key=E3
lovel=0
offset=5561
sample=Alto_staccatissimo_PP_E3_RR3.opus
tune=+17
</region>

<region>
hivel=42
key=E4
lovel=0
sample=Alto_staccatissimo_PP_E4_RR3.opus
tune=+22
</region>

<region>
hivel=42
key=E5
lovel=0
sample=Alto_staccatissimo_PP_E5_RR3.opus
tune=+1
</region>

<region>
hivel=42
key=F#3
lovel=0
offset=5079
sample=Alto_staccatissimo_PP_F#3_RR3.opus
tune=+5
</region>

<region>
hivel=42
key=F#4
lovel=0
offset=331
sample=Alto_staccatissimo_PP_F#4_RR3.opus
tune=+12
</region>

<region>
hivel=42
key=F#5
lovel=0
sample=Alto_staccatissimo_PP_F#5_RR3.opus
tune=+1
</region>

<region>
hivel=42
key=F3
lovel=0
offset=3947
sample=Alto_staccatissimo_PP_F3_RR3.opus
tune=+29
</region>

<region>
hivel=42
key=F4
lovel=0
offset=223
sample=Alto_staccatissimo_PP_F4_RR3.opus
tune=+7
</region>

<region>
hivel=42
key=F5
lovel=0
sample=Alto_staccatissimo_PP_F5_RR3.opus
tune=+1
</region>

<region>
hivel=42
key=G#3
lovel=0
offset=705
sample=Alto_staccatissimo_PP_G#3_RR3.opus
</region>

<region>
hivel=42
key=G#4
lovel=0
offset=384
sample=Alto_staccatissimo_PP_G#4_RR3.opus
tune=+8
</region>

<region>
hivel=42
key=G#5
lovel=0
offset=293
sample=Alto_staccatissimo_PP_G#5_RR3.opus
tune=+2
</region>

<region>
hivel=42
key=G3
lovel=0
offset=2274
sample=Alto_staccatissimo_PP_G3_RR3.opus
tune=+2
</region>

<region>
hivel=42
key=G4
lovel=0
offset=379
sample=Alto_staccatissimo_PP_G4_RR3.opus
tune=+7
</region>

<region>
hivel=42
key=G5
lovel=0
sample=Alto_staccatissimo_PP_G5_RR3.opus
tune=-2
</region>
</group>

<group>
group_label=RR4
seq_length=8
seq_position=4

<region>
hivel=127
key=A#3
lovel=85
offset=314
sample=Alto_staccatissimo_FF_A#3_RR4.opus
tune=-5
</region>

<region>
hivel=127
key=A#4
lovel=85
offset=152
sample=Alto_staccatissimo_FF_A#4_RR4.opus
tune=+34
</region>

<region>
hivel=127
key=A3
lovel=85
offset=674
sample=Alto_staccatissimo_FF_A3_RR4.opus
tune=+8
</region>

<region>
hivel=127
key=A4
lovel=85
offset=78
sample=Alto_staccatissimo_FF_A4_RR4.opus
tune=+22
</region>

<region>
hikey=B5
hivel=127
lokey=A5
lovel=85
pitch_keycenter=A5
sample=Alto_staccatissimo_FF_A5_RR4.opus
tune=+2
</region>

<region>
hivel=127
key=B3
lovel=85
sample=Alto_staccatissimo_FF_B3_RR4.opus
tune=+2
</region>

<region>
hivel=127
key=B4
lovel=85
offset=20
sample=Alto_staccatissimo_FF_B4_RR4.opus
tune=+19
</region>

<region>
hivel=127
key=C#3
lovel=85
sample=Alto_staccatissimo_FF_C#3_RR4.opus
tune=+5
</region>

<region>
hivel=127
key=C#4
lovel=85
offset=50
sample=Alto_staccatissimo_FF_C#4_RR4.opus
tune=+13
</region>

<region>
hivel=127
key=C#5
lovel=85
sample=Alto_staccatissimo_FF_C#5_RR4.opus
tune=+11
</region>

<region>
hivel=127
key=C4
lovel=85
offset=81
sample=Alto_staccatissimo_FF_C4_RR4.opus
tune=-1
</region>

<region>
hivel=127
key=C5
lovel=85
sample=Alto_staccatissimo_FF_C5_RR4.opus
tune=+6
</region>

<region>
hivel=127
key=D#3
lovel=85
sample=Alto_staccatissimo_FF_D#3_RR4.opus
tune=+46
</region>

<region>
hivel=127
key=D#4
lovel=85
offset=5
sample=Alto_staccatissimo_FF_D#4_RR4.opus
tune=+17
</region>

<region>
hivel=127
key=D#5
lovel=85
sample=Alto_staccatissimo_FF_D#5_RR4.opus
tune=+19
</region>

<region>
hivel=127
key=D3
lovel=85
sample=Alto_staccatissimo_FF_D3_RR4.opus
tune=-5
</region>

<region>
hivel=127
key=D4
lovel=85
offset=38
sample=Alto_staccatissimo_FF_D4_RR4.opus
tune=+11
</region>

<region>
hivel=127
key=D5
lovel=85
sample=Alto_staccatissimo_FF_D5_RR4.opus
tune=+9
</region>

<region>
hivel=127
key=E3
lovel=85
sample=Alto_staccatissimo_FF_E3_RR4.opus
tune=+4
</region>

<region>
hivel=127
key=E4
lovel=85
sample=Alto_staccatissimo_FF_E4_RR4.opus
tune=+3
</region>

<region>
hivel=127
key=E5
lovel=85
sample=Alto_staccatissimo_FF_E5_RR4.opus
tune=-2
</region>

<region>
hivel=127
key=F#3
lovel=85
offset=1163
sample=Alto_staccatissimo_FF_F#3_RR4.opus
tune=+8
</region>

<region>
hivel=127
key=F#4
lovel=85
offset=184
sample=Alto_staccatissimo_FF_F#4_RR4.opus
tune=+9
</region>

<region>
hivel=127
key=F#5
lovel=85
sample=Alto_staccatissimo_FF_F#5_RR4.opus
tune=-8
</region>

<region>
hivel=127
key=F3
lovel=85
sample=Alto_staccatissimo_FF_F3_RR4.opus
tune=+19
</region>

<region>
hivel=127
key=F4
lovel=85
offset=1565
sample=Alto_staccatissimo_FF_F4_RR4.opus
tune=+12
</region>

<region>
hivel=127
key=F5
lovel=85
sample=Alto_staccatissimo_FF_F5_RR4.opus
tune=+12
</region>

<region>
hivel=127
key=G#3
lovel=85
offset=505
sample=Alto_staccatissimo_FF_G#3_RR4.opus
tune=+3
</region>

<region>
hivel=127
key=G#4
lovel=85
offset=241
sample=Alto_staccatissimo_FF_G#4_RR4.opus
tune=+11
</region>

<region>
hivel=127
key=G#5
lovel=85
sample=Alto_staccatissimo_FF_G#5_RR4.opus
tune=-1
</region>

<region>
hivel=127
key=G3
lovel=85
offset=1015
sample=Alto_staccatissimo_FF_G3_RR4.opus
tune=+2
</region>

<region>
hivel=127
key=G4
lovel=85
offset=34
sample=Alto_staccatissimo_FF_G4_RR4.opus
tune=-2
</region>

<region>
hivel=127
key=G5
lovel=85
sample=Alto_staccatissimo_FF_G5_RR4.opus
tune=+11
</region>

<region>
hivel=84
key=A#3
lovel=43
offset=641
sample=Alto_staccatissimo_MF_A#3_RR4.opus
tune=+1
</region>

<region>
hivel=84
key=A#4
lovel=43
offset=671
sample=Alto_staccatissimo_MF_A#4_RR4.opus
tune=+7
</region>

<region>
hivel=84
key=A3
lovel=43
offset=1385
sample=Alto_staccatissimo_MF_A3_RR4.opus
tune=+14
</region>

<region>
hivel=84
key=A4
lovel=43
offset=1244
sample=Alto_staccatissimo_MF_A4_RR4.opus
tune=-3
</region>

<region>
hikey=B5
hivel=84
lokey=A5
lovel=43
pitch_keycenter=A5
sample=Alto_staccatissimo_MF_A5_RR4.opus
tune=+1
</region>

<region>
hivel=84
key=B3
lovel=43
offset=127
sample=Alto_staccatissimo_MF_B3_RR4.opus
tune=+5
</region>

<region>
hivel=84
key=B4
lovel=43
offset=14
sample=Alto_staccatissimo_MF_B4_RR4.opus
tune=-2
</region>

<region>
hivel=84
key=C#3
lovel=43
sample=Alto_staccatissimo_MF_C#3_RR4.opus
tune=+6
</region>

<region>
hivel=84
key=C#4
lovel=43
offset=222
sample=Alto_staccatissimo_MF_C#4_RR4.opus
tune=+6
</region>

<region>
hivel=84
key=C#5
lovel=43
offset=59
sample=Alto_staccatissimo_MF_C#5_RR4.opus
tune=+50
</region>

<region>
hivel=84
key=C4
lovel=43
offset=267
sample=Alto_staccatissimo_MF_C4_RR4.opus
tune=+1
</region>

<region>
hivel=84
key=C5
lovel=43
offset=129
sample=Alto_staccatissimo_MF_C5_RR4.opus
tune=-4
</region>

<region>
hivel=84
key=D#3
lovel=43
offset=4099
sample=Alto_staccatissimo_MF_D#3_RR4.opus
tune=+7
</region>

<region>
hivel=84
key=D#4
lovel=43
offset=456
sample=Alto_staccatissimo_MF_D#4_RR4.opus
tune=+12
</region>

<region>
hivel=84
key=D#5
lovel=43
sample=Alto_staccatissimo_MF_D#5_RR4.opus
tune=+8
</region>

<region>
hivel=84
key=D3
lovel=43
sample=Alto_staccatissimo_MF_D3_RR4.opus
tune=+3
</region>

<region>
hivel=84
key=D4
lovel=43
offset=31
sample=Alto_staccatissimo_MF_D4_RR4.opus
tune=+12
</region>

<region>
hivel=84
key=D5
lovel=43
offset=91
sample=Alto_staccatissimo_MF_D5_RR4.opus
tune=+2
</region>

<region>
hivel=84
key=E3
lovel=43
sample=Alto_staccatissimo_MF_E3_RR4.opus
tune=+8
</region>

<region>
hivel=84
key=E4
lovel=43
sample=Alto_staccatissimo_MF_E4_RR4.opus
tune=+20
</region>

<region>
hivel=84
key=E5
lovel=43
sample=Alto_staccatissimo_MF_E5_RR4.opus
tune=-9
</region>

<region>
hivel=84
key=F#3
lovel=43
offset=6346
sample=Alto_staccatissimo_MF_F#3_RR4.opus
tune=-5
</region>

<region>
hivel=84
key=F#4
lovel=43
offset=614
sample=Alto_staccatissimo_MF_F#4_RR4.opus
tune=+4
</region>

<region>
hivel=84
key=F#5
lovel=43
sample=Alto_staccatissimo_MF_F#5_RR4.opus
tune=+8
</region>

<region>
hivel=84
key=F3
lovel=43
offset=5870
sample=Alto_staccatissimo_MF_F3_RR4.opus
tune=+4
</region>

<region>
hivel=84
key=F4
lovel=43
offset=391
sample=Alto_staccatissimo_MF_F4_RR4.opus
tune=+9
</region>

<region>
hivel=84
key=F5
lovel=43
offset=63
sample=Alto_staccatissimo_MF_F5_RR4.opus
tune=-9
</region>

<region>
hivel=84
key=G#3
lovel=43
offset=745
sample=Alto_staccatissimo_MF_G#3_RR4.opus
tune=+7
</region>

<region>
hivel=84
key=G#4
lovel=43
offset=1262
sample=Alto_staccatissimo_MF_G#4_RR4.opus
tune=+3
</region>

<region>
hivel=84
key=G#5
lovel=43
offset=166
sample=Alto_staccatissimo_MF_G#5_RR4.opus
tune=+8
</region>

<region>
hivel=84
key=G3
lovel=43
offset=2218
sample=Alto_staccatissimo_MF_G3_RR4.opus
tune=-2
</region>

<region>
hivel=84
key=G4
lovel=43
offset=793
sample=Alto_staccatissimo_MF_G4_RR4.opus
tune=-3
</region>

<region>
hivel=84
key=G5
lovel=43
sample=Alto_staccatissimo_MF_G5_RR4.opus
tune=+8
</region>

<region>
hivel=42
key=A#3
lovel=0
offset=774
sample=Alto_staccatissimo_PP_A#3_RR4.opus
tune=+2
</region>

<region>
hivel=42
key=A#4
lovel=0
offset=125
sample=Alto_staccatissimo_PP_A#4_RR4.opus
tune=+1
</region>

<region>
hivel=42
key=A3
lovel=0
offset=655
sample=Alto_staccatissimo_PP_A3_RR4.opus
tune=+14
</region>

<region>
hivel=42
key=A4
lovel=0
offset=325
sample=Alto_staccatissimo_PP_A4_RR4.opus
tune=+30
</region>

<region>
hikey=B5
hivel=42
lokey=A5
lovel=0
pitch_keycenter=A5
sample=Alto_staccatissimo_PP_A5_RR4.opus
</region>

<region>
hivel=42
key=B3
lovel=0
sample=Alto_staccatissimo_PP_B3_RR4.opus
tune=-1
</region>

<region>
hivel=42
key=B4
lovel=0
offset=16
sample=Alto_staccatissimo_PP_B4_RR4.opus
tune=+17
</region>

<region>
hivel=42
key=C#3
lovel=0
offset=6340
sample=Alto_staccatissimo_PP_C#3_RR4.opus
tune=-9
</region>

<region>
hivel=42
key=C#4
lovel=0
offset=47
sample=Alto_staccatissimo_PP_C#4_RR4.opus
tune=+1
</region>

<region>
hivel=42
key=C#5
lovel=0
sample=Alto_staccatissimo_PP_C#5_RR4.opus
tune=+12
</region>

<region>
hivel=42
key=C4
lovel=0
offset=83
sample=Alto_staccatissimo_PP_C4_RR4.opus
tune=+1
</region>

<region>
hivel=42
key=C5
lovel=0
sample=Alto_staccatissimo_PP_C5_RR4.opus
tune=+11
</region>

<region>
hivel=42
key=D#3
lovel=0
offset=3868
sample=Alto_staccatissimo_PP_D#3_RR4.opus
tune=+16
</region>

<region>
hivel=42
key=D#4
lovel=0
offset=141
sample=Alto_staccatissimo_PP_D#4_RR4.opus
tune=+24
</region>

<region>
hivel=42
key=D#5
lovel=0
sample=Alto_staccatissimo_PP_D#5_RR4.opus
tune=+11
</region>

<region>
hivel=42
key=D3
lovel=0
offset=4026
sample=Alto_staccatissimo_PP_D3_RR4.opus
tune=-10
</region>

<region>
hivel=42
key=D4
lovel=0
offset=33
sample=Alto_staccatissimo_PP_D4_RR4.opus
tune=+33
</region>

<region>
hivel=42
key=D5
lovel=0
sample=Alto_staccatissimo_PP_D5_RR4.opus
tune=+24
</region>

<region>
hivel=42
key=E3
lovel=0
offset=4754
sample=Alto_staccatissimo_PP_E3_RR4.opus
tune=+19
</region>

<region>
hivel=42
key=E4
lovel=0
sample=Alto_staccatissimo_PP_E4_RR4.opus
tune=+16
</region>

<region>
hivel=42
key=E5
lovel=0
sample=Alto_staccatissimo_PP_E5_RR4.opus
tune=+15
</region>

<region>
hivel=42
key=F#3
lovel=0
offset=5331
sample=Alto_staccatissimo_PP_F#3_RR4.opus
tune=+2
</region>

<region>
hivel=42
key=F#4
lovel=0
offset=196
sample=Alto_staccatissimo_PP_F#4_RR4.opus
tune=+1
</region>

<region>
hivel=42
key=F#5
lovel=0
sample=Alto_staccatissimo_PP_F#5_RR4.opus
tune=+6
</region>

<region>
hivel=42
key=F3
lovel=0
offset=1495
sample=Alto_staccatissimo_PP_F3_RR4.opus
tune=+3
</region>

<region>
hivel=42
key=F4
lovel=0
offset=79
sample=Alto_staccatissimo_PP_F4_RR4.opus
tune=+13
</region>

<region>
hivel=42
key=F5
lovel=0
sample=Alto_staccatissimo_PP_F5_RR4.opus
tune=-8
</region>

<region>
hivel=42
key=G#3
lovel=0
offset=2634
sample=Alto_staccatissimo_PP_G#3_RR4.opus
tune=+11
</region>

<region>
hivel=42
key=G#4
lovel=0
offset=241
sample=Alto_staccatissimo_PP_G#4_RR4.opus
</region>

<region>
hivel=42
key=G#5
lovel=0
offset=135
sample=Alto_staccatissimo_PP_G#5_RR4.opus
tune=+7
</region>

<region>
hivel=42
key=G3
lovel=0
offset=1781
sample=Alto_staccatissimo_PP_G3_RR4.opus
</region>

<region>
hivel=42
key=G4
lovel=0
offset=391
sample=Alto_staccatissimo_PP_G4_RR4.opus
tune=-9
</region>

<region>
hivel=42
key=G5
lovel=0
sample=Alto_staccatissimo_PP_G5_RR4.opus
tune=+3
</region>
</group>

<group>
group_label=RR5
seq_length=8
seq_position=5

<region>
hivel=127
key=A#3
lovel=85
offset=391
sample=Alto_staccatissimo_FF_A#3_RR5.opus
tune=-4
</region>

<region>
hivel=127
key=A#4
lovel=85
offset=229
sample=Alto_staccatissimo_FF_A#4_RR5.opus
tune=+10
</region>

<region>
hivel=127
key=A3
lovel=85
offset=1187
sample=Alto_staccatissimo_FF_A3_RR5.opus
tune=+14
</region>

<region>
hivel=127
key=A4
lovel=85
offset=307
sample=Alto_staccatissimo_FF_A4_RR5.opus
tune=+21
</region>

<region>
hikey=B5
hivel=127
lokey=A5
lovel=85
pitch_keycenter=A5
sample=Alto_staccatissimo_FF_A5_RR5.opus
tune=+1
</region>

<region>
hivel=127
key=B3
lovel=85
offset=143
sample=Alto_staccatissimo_FF_B3_RR5.opus
tune=+4
</region>

<region>
hivel=127
key=B4
lovel=85
offset=220
sample=Alto_staccatissimo_FF_B4_RR5.opus
tune=+19
</region>

<region>
hivel=127
key=C#3
lovel=85
offset=54
sample=Alto_staccatissimo_FF_C#3_RR5.opus
</region>

<region>
hivel=127
key=C#4
lovel=85
sample=Alto_staccatissimo_FF_C#4_RR5.opus
tune=-2
</region>

<region>
hivel=127
key=C#5
lovel=85
sample=Alto_staccatissimo_FF_C#5_RR5.opus
tune=+12
</region>

<region>
hivel=127
key=C4
lovel=85
sample=Alto_staccatissimo_FF_C4_RR5.opus
tune=+6
</region>

<region>
hivel=127
key=C5
lovel=85
sample=Alto_staccatissimo_FF_C5_RR5.opus
tune=+6
</region>

<region>
hivel=127
key=D#3
lovel=85
offset=188
sample=Alto_staccatissimo_FF_D#3_RR5.opus
tune=+44
</region>

<region>
hivel=127
key=D#4
lovel=85
offset=152
sample=Alto_staccatissimo_FF_D#4_RR5.opus
tune=+13
</region>

<region>
hivel=127
key=D#5
lovel=85
sample=Alto_staccatissimo_FF_D#5_RR5.opus
tune=+17
</region>

<region>
hivel=127
key=D3
lovel=85
sample=Alto_staccatissimo_FF_D3_RR5.opus
tune=-1
</region>

<region>
hivel=127
key=D4
lovel=85
offset=23
sample=Alto_staccatissimo_FF_D4_RR5.opus
tune=+15
</region>

<region>
hivel=127
key=D5
lovel=85
sample=Alto_staccatissimo_FF_D5_RR5.opus
tune=+5
</region>

<region>
hivel=127
key=E3
lovel=85
offset=12
sample=Alto_staccatissimo_FF_E3_RR5.opus
tune=+6
</region>

<region>
hivel=127
key=E4
lovel=85
sample=Alto_staccatissimo_FF_E4_RR5.opus
tune=+10
</region>

<region>
hivel=127
key=E5
lovel=85
sample=Alto_staccatissimo_FF_E5_RR5.opus
tune=-2
</region>

<region>
hivel=127
key=F#3
lovel=85
offset=351
sample=Alto_staccatissimo_FF_F#3_RR5.opus
tune=-4
</region>

<region>
hivel=127
key=F#4
lovel=85
offset=475
sample=Alto_staccatissimo_FF_F#4_RR5.opus
tune=+1
</region>

<region>
hivel=127
key=F#5
lovel=85
sample=Alto_staccatissimo_FF_F#5_RR5.opus
tune=+17
</region>

<region>
hivel=127
key=F3
lovel=85
sample=Alto_staccatissimo_FF_F3_RR5.opus
tune=+14
</region>

<region>
hivel=127
key=F4
lovel=85
offset=232
sample=Alto_staccatissimo_FF_F4_RR5.opus
tune=+7
</region>

<region>
hivel=127
key=F5
lovel=85
sample=Alto_staccatissimo_FF_F5_RR5.opus
tune=+13
</region>

<region>
hivel=127
key=G#3
lovel=85
offset=510
sample=Alto_staccatissimo_FF_G#3_RR5.opus
</region>

<region>
hivel=127
key=G#4
lovel=85
offset=97
sample=Alto_staccatissimo_FF_G#4_RR5.opus
tune=+5
</region>

<region>
hivel=127
key=G#5
lovel=85
sample=Alto_staccatissimo_FF_G#5_RR5.opus
tune=+2
</region>

<region>
hivel=127
key=G3
lovel=85
offset=1036
sample=Alto_staccatissimo_FF_G3_RR5.opus
tune=+7
</region>

<region>
hivel=127
key=G4
lovel=85
offset=42
sample=Alto_staccatissimo_FF_G4_RR5.opus
tune=+3
</region>

<region>
hivel=127
key=G5
lovel=85
sample=Alto_staccatissimo_FF_G5_RR5.opus
tune=+4
</region>

<region>
hivel=84
key=A#3
lovel=43
offset=779
sample=Alto_staccatissimo_MF_A#3_RR5.opus
tune=+8
</region>

<region>
hivel=84
key=A#4
lovel=43
offset=268
sample=Alto_staccatissimo_MF_A#4_RR5.opus
tune=+15
</region>

<region>
hivel=84
key=A3
lovel=43
offset=715
sample=Alto_staccatissimo_MF_A3_RR5.opus
tune=+36
</region>

<region>
hivel=84
key=A4
lovel=43
offset=1128
sample=Alto_staccatissimo_MF_A4_RR5.opus
</region>

<region>
hikey=B5
hivel=84
lokey=A5
lovel=43
pitch_keycenter=A5
sample=Alto_staccatissimo_MF_A5_RR5.opus
tune=+2
</region>

<region>
hivel=84
key=B3
lovel=43
offset=133
sample=Alto_staccatissimo_MF_B3_RR5.opus
tune=+12
</region>

<region>
hivel=84
key=B4
lovel=43
sample=Alto_staccatissimo_MF_B4_RR5.opus
tune=+6
</region>

<region>
hivel=84
key=C#3
lovel=43
sample=Alto_staccatissimo_MF_C#3_RR5.opus
tune=+11
</region>

<region>
hivel=84
key=C#4
lovel=43
offset=234
sample=Alto_staccatissimo_MF_C#4_RR5.opus
tune=+3
</region>

<region>
hivel=84
key=C#5
lovel=43
sample=Alto_staccatissimo_MF_C#5_RR5.opus
tune=-2
</region>

<region>
hivel=84
key=C4
lovel=43
offset=205
sample=Alto_staccatissimo_MF_C4_RR5.opus
tune=+2
</region>

<region>
hivel=84
key=C5
lovel=43
offset=93
sample=Alto_staccatissimo_MF_C5_RR5.opus
tune=+10
</region>

<region>
hivel=84
key=D#3
lovel=43
sample=Alto_staccatissimo_MF_D#3_RR5.opus
tune=-1
</region>

<region>
hivel=84
key=D#4
lovel=43
offset=13
sample=Alto_staccatissimo_MF_D#4_RR5.opus
tune=+6
</region>

<region>
hivel=84
key=D#5
lovel=43
sample=Alto_staccatissimo_MF_D#5_RR5.opus
tune=+14
</region>

<region>
hivel=84
key=D3
lovel=43
sample=Alto_staccatissimo_MF_D3_RR5.opus
tune=+7
</region>

<region>
hivel=84
key=D4
lovel=43
offset=185
sample=Alto_staccatissimo_MF_D4_RR5.opus
tune=+16
</region>

<region>
hivel=84
key=D5
lovel=43
sample=Alto_staccatissimo_MF_D5_RR5.opus
tune=+21
</region>

<region>
hivel=84
key=E3
lovel=43
sample=Alto_staccatissimo_MF_E3_RR5.opus
tune=+16
</region>

<region>
hivel=84
key=E4
lovel=43
offset=105
sample=Alto_staccatissimo_MF_E4_RR5.opus
tune=+20
</region>

<region>
hivel=84
key=E5
lovel=43
sample=Alto_staccatissimo_MF_E5_RR5.opus
tune=-10
</region>

<region>
hivel=84
key=F#3
lovel=43
offset=6045
sample=Alto_staccatissimo_MF_F#3_RR5.opus
tune=-16
</region>

<region>
hivel=84
key=F#4
lovel=43
offset=806
sample=Alto_staccatissimo_MF_F#4_RR5.opus
tune=-2
</region>

<region>
hivel=84
key=F#5
lovel=43
sample=Alto_staccatissimo_MF_F#5_RR5.opus
tune=+3
</region>

<region>
hivel=84
key=F3
lovel=43
offset=6115
sample=Alto_staccatissimo_MF_F3_RR5.opus
tune=+7
</region>

<region>
hivel=84
key=F4
lovel=43
offset=391
sample=Alto_staccatissimo_MF_F4_RR5.opus
tune=+27
</region>

<region>
hivel=84
key=F5
lovel=43
sample=Alto_staccatissimo_MF_F5_RR5.opus
tune=+15
</region>

<region>
hivel=84
key=G#3
lovel=43
offset=715
sample=Alto_staccatissimo_MF_G#3_RR5.opus
tune=+1
</region>

<region>
hivel=84
key=G#4
lovel=43
offset=829
sample=Alto_staccatissimo_MF_G#4_RR5.opus
tune=+1
</region>

<region>
hivel=84
key=G#5
lovel=43
sample=Alto_staccatissimo_MF_G#5_RR5.opus
tune=+3
</region>

<region>
hivel=84
key=G3
lovel=43
offset=2017
sample=Alto_staccatissimo_MF_G3_RR5.opus
tune=-5
</region>

<region>
hivel=84
key=G4
lovel=43
offset=639
sample=Alto_staccatissimo_MF_G4_RR5.opus
tune=+2
</region>

<region>
hivel=84
key=G5
lovel=43
sample=Alto_staccatissimo_MF_G5_RR5.opus
tune=-3
</region>

<region>
hivel=42
key=A#3
lovel=0
offset=981
sample=Alto_staccatissimo_PP_A#3_RR5.opus
tune=+3
</region>

<region>
hivel=42
key=A#4
lovel=0
offset=48
sample=Alto_staccatissimo_PP_A#4_RR5.opus
tune=+7
</region>

<region>
hivel=42
key=A3
lovel=0
offset=690
sample=Alto_staccatissimo_PP_A3_RR5.opus
tune=+18
</region>

<region>
hivel=42
key=A4
lovel=0
offset=313
sample=Alto_staccatissimo_PP_A4_RR5.opus
tune=+6
</region>

<region>
hikey=B5
hivel=42
lokey=A5
lovel=0
offset=337
pitch_keycenter=A5
sample=Alto_staccatissimo_PP_A5_RR5.opus
tune=+1
</region>

<region>
hivel=42
key=B3
lovel=0
sample=Alto_staccatissimo_PP_B3_RR5.opus
tune=+7
</region>

<region>
hivel=42
key=B4
lovel=0
offset=12
sample=Alto_staccatissimo_PP_B4_RR5.opus
tune=+15
</region>

<region>
hivel=42
key=C#3
lovel=0
offset=7976
sample=Alto_staccatissimo_PP_C#3_RR5.opus
tune=-8
</region>

<region>
hivel=42
key=C#4
lovel=0
sample=Alto_staccatissimo_PP_C#4_RR5.opus
tune=+9
</region>

<region>
hivel=42
key=C#5
lovel=0
sample=Alto_staccatissimo_PP_C#5_RR5.opus
tune=+4
</region>

<region>
hivel=42
key=C4
lovel=0
offset=74
sample=Alto_staccatissimo_PP_C4_RR5.opus
</region>

<region>
hivel=42
key=C5
lovel=0
sample=Alto_staccatissimo_PP_C5_RR5.opus
tune=+28
</region>

<region>
hivel=42
key=D#3
lovel=0
offset=3809
sample=Alto_staccatissimo_PP_D#3_RR5.opus
tune=+12
</region>

<region>
hivel=42
key=D#4
lovel=0
offset=3
sample=Alto_staccatissimo_PP_D#4_RR5.opus
tune=+3
</region>

<region>
hivel=42
key=D#5
lovel=0
sample=Alto_staccatissimo_PP_D#5_RR5.opus
tune=+12
</region>

<region>
hivel=42
key=D3
lovel=0
offset=4323
sample=Alto_staccatissimo_PP_D3_RR5.opus
tune=-18
</region>

<region>
hivel=42
key=D4
lovel=0
sample=Alto_staccatissimo_PP_D4_RR5.opus
tune=+6
</region>

<region>
hivel=42
key=D5
lovel=0
sample=Alto_staccatissimo_PP_D5_RR5.opus
tune=+18
</region>

<region>
hivel=42
key=E3
lovel=0
offset=4177
sample=Alto_staccatissimo_PP_E3_RR5.opus
tune=+21
</region>

<region>
hivel=42
key=E4
lovel=0
sample=Alto_staccatissimo_PP_E4_RR5.opus
tune=+13
</region>

<region>
hivel=42
key=E5
lovel=0
sample=Alto_staccatissimo_PP_E5_RR5.opus
tune=+4
</region>

<region>
hivel=42
key=F#3
lovel=0
offset=1684
sample=Alto_staccatissimo_PP_F#3_RR5.opus
tune=+3
</region>

<region>
hivel=42
key=F#4
lovel=0
offset=184
sample=Alto_staccatissimo_PP_F#4_RR5.opus
tune=+2
</region>

<region>
hivel=42
key=F#5
lovel=0
sample=Alto_staccatissimo_PP_F#5_RR5.opus
tune=+8
</region>

<region>
hivel=42
key=F3
lovel=0
offset=4804
sample=Alto_staccatissimo_PP_F3_RR5.opus
tune=+27
</region>

<region>
hivel=42
key=F4
lovel=0
offset=232
sample=Alto_staccatissimo_PP_F4_RR5.opus
tune=+1
</region>

<region>
hivel=42
key=F5
lovel=0
sample=Alto_staccatissimo_PP_F5_RR5.opus
tune=+13
</region>

<region>
hivel=42
key=G#3
lovel=0
offset=924
sample=Alto_staccatissimo_PP_G#3_RR5.opus
tune=+9
</region>

<region>
hivel=42
key=G#4
lovel=0
offset=230
sample=Alto_staccatissimo_PP_G#4_RR5.opus
tune=-2
</region>

<region>
hivel=42
key=G#5
lovel=0
sample=Alto_staccatissimo_PP_G#5_RR5.opus
tune=+5
</region>

<region>
hivel=42
key=G3
lovel=0
offset=1287
sample=Alto_staccatissimo_PP_G3_RR5.opus
tune=+4
</region>

<region>
hivel=42
key=G4
lovel=0
offset=533
sample=Alto_staccatissimo_PP_G4_RR5.opus
tune=+4
</region>

<region>
hivel=42
key=G5
lovel=0
sample=Alto_staccatissimo_PP_G5_RR5.opus
tune=-1
</region>
</group>

<group>
group_label=RR6
seq_length=8
seq_position=6

<region>
hivel=127
key=A#3
lovel=85
offset=351
sample=Alto_staccatissimo_FF_A#3_RR6.opus
tune=-7
</region>

<region>
hivel=127
key=A#4
lovel=85
offset=146
sample=Alto_staccatissimo_FF_A#4_RR6.opus
tune=+20
</region>

<region>
hivel=127
key=A3
lovel=85
offset=986
sample=Alto_staccatissimo_FF_A3_RR6.opus
tune=+7
</region>

<region>
hivel=127
key=A4
lovel=85
offset=190
sample=Alto_staccatissimo_FF_A4_RR6.opus
tune=+17
</region>

<region>
hikey=B5
hivel=127
lokey=A5
lovel=85
pitch_keycenter=A5
sample=Alto_staccatissimo_FF_A5_RR6.opus
tune=+5
</region>

<region>
hivel=127
key=B3
lovel=85
offset=518
sample=Alto_staccatissimo_FF_B3_RR6.opus
tune=+5
</region>

<region>
hivel=127
key=B4
lovel=85
offset=125
sample=Alto_staccatissimo_FF_B4_RR6.opus
tune=+25
</region>

<region>
hivel=127
key=C#3
lovel=85
offset=38
sample=Alto_staccatissimo_FF_C#3_RR6.opus
tune=+1
</region>

<region>
hivel=127
key=C#4
lovel=85
offset=49
sample=Alto_staccatissimo_FF_C#4_RR6.opus
tune=+8
</region>

<region>
hivel=127
key=C#5
lovel=85
sample=Alto_staccatissimo_FF_C#5_RR6.opus
tune=-5
</region>

<region>
hivel=127
key=C4
lovel=85
offset=84
sample=Alto_staccatissimo_FF_C4_RR6.opus
tune=-8
</region>

<region>
hivel=127
key=C5
lovel=85
sample=Alto_staccatissimo_FF_C5_RR6.opus
tune=+5
</region>

<region>
hivel=127
key=D#3
lovel=85
offset=147
sample=Alto_staccatissimo_FF_D#3_RR6.opus
tune=+40
</region>

<region>
hivel=127
key=D#4
lovel=85
offset=2
sample=Alto_staccatissimo_FF_D#4_RR6.opus
tune=+15
</region>

<region>
hivel=127
key=D#5
lovel=85
sample=Alto_staccatissimo_FF_D#5_RR6.opus
tune=+8
</region>

<region>
hivel=127
key=D3
lovel=85
offset=213
sample=Alto_staccatissimo_FF_D3_RR6.opus
tune=-5
</region>

<region>
hivel=127
key=D4
lovel=85
offset=34
sample=Alto_staccatissimo_FF_D4_RR6.opus
tune=+24
</region>

<region>
hivel=127
key=D5
lovel=85
sample=Alto_staccatissimo_FF_D5_RR6.opus
tune=+10
</region>

<region>
hivel=127
key=E3
lovel=85
sample=Alto_staccatissimo_FF_E3_RR6.opus
tune=+9
</region>

<region>
hivel=127
key=E4
lovel=85
sample=Alto_staccatissimo_FF_E4_RR6.opus
tune=+9
</region>

<region>
hivel=127
key=E5
lovel=85
sample=Alto_staccatissimo_FF_E5_RR6.opus
tune=+3
</region>

<region>
hivel=127
key=F#3
lovel=85
offset=350
sample=Alto_staccatissimo_FF_F#3_RR6.opus
tune=-1
</region>

<region>
hivel=127
key=F#4
lovel=85
offset=48
sample=Alto_staccatissimo_FF_F#4_RR6.opus
tune=+2
</region>

<region>
hivel=127
key=F#5
lovel=85
sample=Alto_staccatissimo_FF_F#5_RR6.opus
tune=+8
</region>

<region>
hivel=127
key=F3
lovel=85
offset=5259
sample=Alto_staccatissimo_FF_F3_RR6.opus
tune=+25
</region>

<region>
hivel=127
key=F4
lovel=85
offset=119
sample=Alto_staccatissimo_FF_F4_RR6.opus
tune=-1
</region>

<region>
hivel=127
key=F5
lovel=85
sample=Alto_staccatissimo_FF_F5_RR6.opus
tune=+9
</region>

<region>
hivel=127
key=G#3
lovel=85
offset=766
sample=Alto_staccatissimo_FF_G#3_RR6.opus
tune=+7
</region>

<region>
hivel=127
key=G#4
lovel=85
offset=10
sample=Alto_staccatissimo_FF_G#4_RR6.opus
tune=+6
</region>

<region>
hivel=127
key=G#5
lovel=85
sample=Alto_staccatissimo_FF_G#5_RR6.opus
tune=+4
</region>

<region>
hivel=127
key=G3
lovel=85
offset=5541
sample=Alto_staccatissimo_FF_G3_RR6.opus
</region>

<region>
hivel=127
key=G4
lovel=85
offset=25
sample=Alto_staccatissimo_FF_G4_RR6.opus
tune=+8
</region>

<region>
hivel=127
key=G5
lovel=85
sample=Alto_staccatissimo_FF_G5_RR6.opus
tune=+10
</region>

<region>
hivel=84
key=A#3
lovel=43
offset=585
sample=Alto_staccatissimo_MF_A#3_RR6.opus
tune=-3
</region>

<region>
hivel=84
key=A#4
lovel=43
offset=253
sample=Alto_staccatissimo_MF_A#4_RR6.opus
tune=+2
</region>

<region>
hivel=84
key=A3
lovel=43
offset=1109
sample=Alto_staccatissimo_MF_A3_RR6.opus
tune=+5
</region>

<region>
hivel=84
key=A4
lovel=43
offset=670
sample=Alto_staccatissimo_MF_A4_RR6.opus
tune=-2
</region>

<region>
hikey=B5
hivel=84
lokey=A5
lovel=43
pitch_keycenter=A5
sample=Alto_staccatissimo_MF_A5_RR6.opus
tune=+5
</region>

<region>
hivel=84
key=B3
lovel=43
offset=509
sample=Alto_staccatissimo_MF_B3_RR6.opus
tune=+11
</region>

<region>
hivel=84
key=B4
lovel=43
offset=8
sample=Alto_staccatissimo_MF_B4_RR6.opus
tune=+5
</region>

<region>
hivel=84
key=C#3
lovel=43
sample=Alto_staccatissimo_MF_C#3_RR6.opus
tune=+4
</region>

<region>
hivel=84
key=C#4
lovel=43
offset=237
sample=Alto_staccatissimo_MF_C#4_RR6.opus
tune=+12
</region>

<region>
hivel=84
key=C#5
lovel=43
offset=28
sample=Alto_staccatissimo_MF_C#5_RR6.opus
tune=-5
</region>

<region>
hivel=84
key=C4
lovel=43
sample=Alto_staccatissimo_MF_C4_RR6.opus
tune=+1
</region>

<region>
hivel=84
key=C5
lovel=43
sample=Alto_staccatissimo_MF_C5_RR6.opus
tune=+5
</region>

<region>
hivel=84
key=D#3
lovel=43
sample=Alto_staccatissimo_MF_D#3_RR6.opus
tune=+6
</region>

<region>
hivel=84
key=D#4
lovel=43
sample=Alto_staccatissimo_MF_D#4_RR6.opus
tune=+5
</region>

<region>
hivel=84
key=D#5
lovel=43
sample=Alto_staccatissimo_MF_D#5_RR6.opus
tune=-1
</region>

<region>
hivel=84
key=D3
lovel=43
sample=Alto_staccatissimo_MF_D3_RR6.opus
tune=-2
</region>

<region>
hivel=84
key=D4
lovel=43
offset=42
sample=Alto_staccatissimo_MF_D4_RR6.opus
tune=+25
</region>

<region>
hivel=84
key=D5
lovel=43
sample=Alto_staccatissimo_MF_D5_RR6.opus
tune=+2
</region>

<region>
hivel=84
key=E3
lovel=43
sample=Alto_staccatissimo_MF_E3_RR6.opus
tune=+7
</region>

<region>
hivel=84
key=E4
lovel=43
sample=Alto_staccatissimo_MF_E4_RR6.opus
tune=+23
</region>

<region>
hivel=84
key=E5
lovel=43
sample=Alto_staccatissimo_MF_E5_RR6.opus
tune=+28
</region>

<region>
hivel=84
key=F#3
lovel=43
offset=7895
sample=Alto_staccatissimo_MF_F#3_RR6.opus
tune=-6
</region>

<region>
hivel=84
key=F#4
lovel=43
offset=732
sample=Alto_staccatissimo_MF_F#4_RR6.opus
</region>

<region>
hivel=84
key=F#5
lovel=43
sample=Alto_staccatissimo_MF_F#5_RR6.opus
tune=+22
</region>

<region>
hivel=84
key=F3
lovel=43
offset=7684
sample=Alto_staccatissimo_MF_F3_RR6.opus
tune=+5
</region>

<region>
hivel=84
key=F4
lovel=43
offset=244
sample=Alto_staccatissimo_MF_F4_RR6.opus
tune=+20
</region>

<region>
hivel=84
key=F5
lovel=43
offset=24
sample=Alto_staccatissimo_MF_F5_RR6.opus
tune=+25
</region>

<region>
hivel=84
key=G#3
lovel=43
offset=1432
sample=Alto_staccatissimo_MF_G#3_RR6.opus
tune=+8
</region>

<region>
hivel=84
key=G#4
lovel=43
offset=611
sample=Alto_staccatissimo_MF_G#4_RR6.opus
tune=+2
</region>

<region>
hivel=84
key=G#5
lovel=43
sample=Alto_staccatissimo_MF_G#5_RR6.opus
</region>

<region>
hivel=84
key=G3
lovel=43
offset=2031
sample=Alto_staccatissimo_MF_G3_RR6.opus
tune=+3
</region>

<region>
hivel=84
key=G4
lovel=43
offset=780
sample=Alto_staccatissimo_MF_G4_RR6.opus
tune=+7
</region>

<region>
hivel=84
key=G5
lovel=43
sample=Alto_staccatissimo_MF_G5_RR6.opus
</region>

<region>
hivel=42
key=A#3
lovel=0
offset=782
sample=Alto_staccatissimo_PP_A#3_RR6.opus
tune=+7
</region>

<region>
hivel=42
key=A#4
lovel=0
offset=130
sample=Alto_staccatissimo_PP_A#4_RR6.opus
tune=-4
</region>

<region>
hivel=42
key=A3
lovel=0
offset=618
sample=Alto_staccatissimo_PP_A3_RR6.opus
tune=-3
</region>

<region>
hivel=42
key=A4
lovel=0
offset=316
sample=Alto_staccatissimo_PP_A4_RR6.opus
tune=+9
</region>

<region>
hikey=B5
hivel=42
lokey=A5
lovel=0
offset=95
pitch_keycenter=A5
sample=Alto_staccatissimo_PP_A5_RR6.opus
</region>

<region>
hivel=42
key=B3
lovel=0
sample=Alto_staccatissimo_PP_B3_RR6.opus
tune=+2
</region>

<region>
hivel=42
key=B4
lovel=0
sample=Alto_staccatissimo_PP_B4_RR6.opus
tune=+14
</region>

<region>
hivel=42
key=C#3
lovel=0
offset=5998
sample=Alto_staccatissimo_PP_C#3_RR6.opus
tune=-18
</region>

<region>
hivel=42
key=C#4
lovel=0
sample=Alto_staccatissimo_PP_C#4_RR6.opus
tune=+13
</region>

<region>
hivel=42
key=C#5
lovel=0
sample=Alto_staccatissimo_PP_C#5_RR6.opus
tune=+1
</region>

<region>
hivel=42
key=C4
lovel=0
offset=83
sample=Alto_staccatissimo_PP_C4_RR6.opus
tune=-2
</region>

<region>
hivel=42
key=C5
lovel=0
sample=Alto_staccatissimo_PP_C5_RR6.opus
tune=+15
</region>

<region>
hivel=42
key=D#3
lovel=0
offset=3867
sample=Alto_staccatissimo_PP_D#3_RR6.opus
tune=+19
</region>

<region>
hivel=42
key=D#4
lovel=0
offset=1
sample=Alto_staccatissimo_PP_D#4_RR6.opus
tune=+13
</region>

<region>
hivel=42
key=D#5
lovel=0
sample=Alto_staccatissimo_PP_D#5_RR6.opus
tune=+1
</region>

<region>
hivel=42
key=D3
lovel=0
offset=3749
sample=Alto_staccatissimo_PP_D3_RR6.opus
tune=-12
</region>

<region>
hivel=42
key=D4
lovel=0
sample=Alto_staccatissimo_PP_D4_RR6.opus
tune=+38
</region>

<region>
hivel=42
key=D5
lovel=0
sample=Alto_staccatissimo_PP_D5_RR6.opus
tune=+21
</region>

<region>
hivel=42
key=E3
lovel=0
offset=5334
sample=Alto_staccatissimo_PP_E3_RR6.opus
tune=+22
</region>

<region>
hivel=42
key=E4
lovel=0
sample=Alto_staccatissimo_PP_E4_RR6.opus
tune=+27
</region>

<region>
hivel=42
key=E5
lovel=0
sample=Alto_staccatissimo_PP_E5_RR6.opus
tune=+11
</region>

<region>
hivel=42
key=F#3
lovel=0
offset=1676
sample=Alto_staccatissimo_PP_F#3_RR6.opus
tune=-2
</region>

<region>
hivel=42
key=F#4
lovel=0
offset=200
sample=Alto_staccatissimo_PP_F#4_RR6.opus
tune=+12
</region>

<region>
hivel=42
key=F#5
lovel=0
sample=Alto_staccatissimo_PP_F#5_RR6.opus
tune=-2
</region>

<region>
hivel=42
key=F3
lovel=0
offset=3469
sample=Alto_staccatissimo_PP_F3_RR6.opus
tune=+25
</region>

<region>
hivel=42
key=F4
lovel=0
offset=380
sample=Alto_staccatissimo_PP_F4_RR6.opus
tune=+17
</region>

<region>
hivel=42
key=F5
lovel=0
sample=Alto_staccatissimo_PP_F5_RR6.opus
tune=+19
</region>

<region>
hivel=42
key=G#3
lovel=0
offset=1189
sample=Alto_staccatissimo_PP_G#3_RR6.opus
tune=+8
</region>

<region>
hivel=42
key=G#4
lovel=0
offset=134
sample=Alto_staccatissimo_PP_G#4_RR6.opus
tune=+3
</region>

<region>
hivel=42
key=G#5
lovel=0
sample=Alto_staccatissimo_PP_G#5_RR6.opus
tune=+2
</region>

<region>
hivel=42
key=G3
lovel=0
offset=1316
sample=Alto_staccatissimo_PP_G3_RR6.opus
tune=+2
</region>

<region>
hivel=42
key=G4
lovel=0
offset=528
sample=Alto_staccatissimo_PP_G4_RR6.opus
tune=+5
</region>

<region>
hivel=42
key=G5
lovel=0
sample=Alto_staccatissimo_PP_G5_RR6.opus
tune=+1
</region>
</group>

<group>
group_label=RR7
seq_length=8
seq_position=7

<region>
hivel=127
key=A#3
lovel=85
offset=358
sample=Alto_staccatissimo_FF_A#3_RR7.opus
tune=+1
</region>

<region>
hivel=127
key=A#4
lovel=85
offset=224
sample=Alto_staccatissimo_FF_A#4_RR7.opus
tune=+11
</region>

<region>
hivel=127
key=A3
lovel=85
offset=229
sample=Alto_staccatissimo_FF_A3_RR7.opus
tune=+4
</region>

<region>
hivel=127
key=A4
lovel=85
offset=387
sample=Alto_staccatissimo_FF_A4_RR7.opus
tune=+23
</region>

<region>
hikey=B5
hivel=127
lokey=A5
lovel=85
pitch_keycenter=A5
sample=Alto_staccatissimo_FF_A5_RR7.opus
tune=+1
</region>

<region>
hivel=127
key=B3
lovel=85
offset=146
sample=Alto_staccatissimo_FF_B3_RR7.opus
tune=-1
</region>

<region>
hivel=127
key=B4
lovel=85
offset=31
sample=Alto_staccatissimo_FF_B4_RR7.opus
tune=+6
</region>

<region>
hivel=127
key=C#3
lovel=85
sample=Alto_staccatissimo_FF_C#3_RR7.opus
tune=+1
</region>

<region>
hivel=127
key=C#4
lovel=85
offset=48
sample=Alto_staccatissimo_FF_C#4_RR7.opus
tune=+4
</region>

<region>
hivel=127
key=C#5
lovel=85
sample=Alto_staccatissimo_FF_C#5_RR7.opus
tune=+15
</region>

<region>
hivel=127
key=C4
lovel=85
offset=98
sample=Alto_staccatissimo_FF_C4_RR7.opus
</region>

<region>
hivel=127
key=C5
lovel=85
sample=Alto_staccatissimo_FF_C5_RR7.opus
tune=+2
</region>

<region>
hivel=127
key=D#3
lovel=85
sample=Alto_staccatissimo_FF_D#3_RR7.opus
tune=+37
</region>

<region>
hivel=127
key=D#4
lovel=85
sample=Alto_staccatissimo_FF_D#4_RR7.opus
tune=+14
</region>

<region>
hivel=127
key=D#5
lovel=85
offset=323
sample=Alto_staccatissimo_FF_D#5_RR7.opus
tune=+7
</region>

<region>
hivel=127
key=D3
lovel=85
sample=Alto_staccatissimo_FF_D3_RR7.opus
tune=-1
</region>

<region>
hivel=127
key=D4
lovel=85
offset=43
sample=Alto_staccatissimo_FF_D4_RR7.opus
tune=+8
</region>

<region>
hivel=127
key=D5
lovel=85
sample=Alto_staccatissimo_FF_D5_RR7.opus
tune=+4
</region>

<region>
hivel=127
key=E3
lovel=85
offset=34
sample=Alto_staccatissimo_FF_E3_RR7.opus
tune=+7
</region>

<region>
hivel=127
key=E4
lovel=85
sample=Alto_staccatissimo_FF_E4_RR7.opus
tune=+17
</region>

<region>
hivel=127
key=E5
lovel=85
sample=Alto_staccatissimo_FF_E5_RR7.opus
tune=+5
</region>

<region>
hivel=127
key=F#3
lovel=85
offset=851
sample=Alto_staccatissimo_FF_F#3_RR7.opus
</region>

<region>
hivel=127
key=F#4
lovel=85
offset=287
sample=Alto_staccatissimo_FF_F#4_RR7.opus
tune=-1
</region>

<region>
hivel=127
key=F#5
lovel=85
sample=Alto_staccatissimo_FF_F#5_RR7.opus
tune=+13
</region>

<region>
hivel=127
key=F3
lovel=85
offset=3734
sample=Alto_staccatissimo_FF_F3_RR7.opus
tune=+17
</region>

<region>
hivel=127
key=F4
lovel=85
offset=231
sample=Alto_staccatissimo_FF_F4_RR7.opus
tune=+2
</region>

<region>
hivel=127
key=F5
lovel=85
sample=Alto_staccatissimo_FF_F5_RR7.opus
tune=+20
</region>

<region>
hivel=127
key=G#3
lovel=85
offset=718
sample=Alto_staccatissimo_FF_G#3_RR7.opus
tune=+4
</region>

<region>
hivel=127
key=G#4
lovel=85
offset=12
sample=Alto_staccatissimo_FF_G#4_RR7.opus
tune=+7
</region>

<region>
hivel=127
key=G#5
lovel=85
sample=Alto_staccatissimo_FF_G#5_RR7.opus
tune=+12
</region>

<region>
hivel=127
key=G3
lovel=85
offset=798
sample=Alto_staccatissimo_FF_G3_RR7.opus
tune=+4
</region>

<region>
hivel=127
key=G4
lovel=85
offset=417
sample=Alto_staccatissimo_FF_G4_RR7.opus
tune=+5
</region>

<region>
hivel=127
key=G5
lovel=85
sample=Alto_staccatissimo_FF_G5_RR7.opus
tune=+8
</region>

<region>
hivel=84
key=A#3
lovel=43
offset=596
sample=Alto_staccatissimo_MF_A#3_RR7.opus
tune=+8
</region>

<region>
hivel=84
key=A#4
lovel=43
offset=267
sample=Alto_staccatissimo_MF_A#4_RR7.opus
tune=+5
</region>

<region>
hivel=84
key=A3
lovel=43
offset=1994
sample=Alto_staccatissimo_MF_A3_RR7.opus
tune=+20
</region>

<region>
hivel=84
key=A4
lovel=43
offset=1374
sample=Alto_staccatissimo_MF_A4_RR7.opus
tune=-4
</region>

<region>
hikey=B5
hivel=84
lokey=A5
lovel=43
pitch_keycenter=A5
sample=Alto_staccatissimo_MF_A5_RR7.opus
tune=+2
</region>

<region>
hivel=84
key=B3
lovel=43
offset=320
sample=Alto_staccatissimo_MF_B3_RR7.opus
tune=+4
</region>

<region>
hivel=84
key=B4
lovel=43
offset=107
sample=Alto_staccatissimo_MF_B4_RR7.opus
tune=+9
</region>

<region>
hivel=84
key=C#3
lovel=43
sample=Alto_staccatissimo_MF_C#3_RR7.opus
tune=+1
</region>

<region>
hivel=84
key=C#4
lovel=43
offset=229
sample=Alto_staccatissimo_MF_C#4_RR7.opus
tune=+10
</region>

<region>
hivel=84
key=C#5
lovel=43
offset=403
sample=Alto_staccatissimo_MF_C#5_RR7.opus
tune=+7
</region>

<region>
hivel=84
key=C4
lovel=43
sample=Alto_staccatissimo_MF_C4_RR7.opus
tune=+7
</region>

<region>
hivel=84
key=C5
lovel=43
offset=371
sample=Alto_staccatissimo_MF_C5_RR7.opus
tune=+7
</region>

<region>
hivel=84
key=D#3
lovel=43
sample=Alto_staccatissimo_MF_D#3_RR7.opus
tune=+10
</region>

<region>
hivel=84
key=D#4
lovel=43
sample=Alto_staccatissimo_MF_D#4_RR7.opus
tune=+5
</region>

<region>
hivel=84
key=D#5
lovel=43
sample=Alto_staccatissimo_MF_D#5_RR7.opus
</region>

<region>
hivel=84
key=D3
lovel=43
sample=Alto_staccatissimo_MF_D3_RR7.opus
tune=-2
</region>

<region>
hivel=84
key=D4
lovel=43
offset=219
sample=Alto_staccatissimo_MF_D4_RR7.opus
tune=+19
</region>

<region>
hivel=84
key=D5
lovel=43
sample=Alto_staccatissimo_MF_D5_RR7.opus
tune=+8
</region>

<region>
hivel=84
key=E3
lovel=43
sample=Alto_staccatissimo_MF_E3_RR7.opus
tune=+11
</region>

<region>
hivel=84
key=E4
lovel=43
sample=Alto_staccatissimo_MF_E4_RR7.opus
tune=+9
</region>

<region>
hivel=84
key=E5
lovel=43
sample=Alto_staccatissimo_MF_E5_RR7.opus
tune=-5
</region>

<region>
hivel=84
key=F#3
lovel=43
offset=2126
sample=Alto_staccatissimo_MF_F#3_RR7.opus
tune=+2
</region>

<region>
hivel=84
key=F#4
lovel=43
offset=739
sample=Alto_staccatissimo_MF_F#4_RR7.opus
tune=+10
</region>

<region>
hivel=84
key=F#5
lovel=43
sample=Alto_staccatissimo_MF_F#5_RR7.opus
tune=+23
</region>

<region>
hivel=84
key=F3
lovel=43
offset=1240
sample=Alto_staccatissimo_MF_F3_RR7.opus
tune=+4
</region>

<region>
hivel=84
key=F4
lovel=43
offset=366
sample=Alto_staccatissimo_MF_F4_RR7.opus
tune=+18
</region>

<region>
hivel=84
key=F5
lovel=43
sample=Alto_staccatissimo_MF_F5_RR7.opus
tune=+11
</region>

<region>
hivel=84
key=G#3
lovel=43
offset=1200
sample=Alto_staccatissimo_MF_G#3_RR7.opus
tune=+3
</region>

<region>
hivel=84
key=G#4
lovel=43
offset=1501
sample=Alto_staccatissimo_MF_G#4_RR7.opus
tune=-4
</region>

<region>
hivel=84
key=G#5
lovel=43
sample=Alto_staccatissimo_MF_G#5_RR7.opus
tune=+2
</region>

<region>
hivel=84
key=G3
lovel=43
offset=1790
sample=Alto_staccatissimo_MF_G3_RR7.opus
</region>

<region>
hivel=84
key=G4
lovel=43
offset=922
sample=Alto_staccatissimo_MF_G4_RR7.opus
tune=+3
</region>

<region>
hivel=84
key=G5
lovel=43
sample=Alto_staccatissimo_MF_G5_RR7.opus
tune=+2
</region>

<region>
hivel=42
key=A#3
lovel=0
offset=777
sample=Alto_staccatissimo_PP_A#3_RR7.opus
tune=+6
</region>

<region>
hivel=42
key=A#4
lovel=0
offset=132
sample=Alto_staccatissimo_PP_A#4_RR7.opus
tune=+14
</region>

<region>
hivel=42
key=A3
lovel=0
offset=645
sample=Alto_staccatissimo_PP_A3_RR7.opus
tune=+14
</region>

<region>
hivel=42
key=A4
lovel=0
offset=306
sample=Alto_staccatissimo_PP_A4_RR7.opus
tune=-2
</region>

<region>
hikey=B5
hivel=42
lokey=A5
lovel=0
pitch_keycenter=A5
sample=Alto_staccatissimo_PP_A5_RR7.opus
tune=-11
</region>

<region>
hivel=42
key=B3
lovel=0
sample=Alto_staccatissimo_PP_B3_RR7.opus
tune=-1
</region>

<region>
hivel=42
key=B4
lovel=0
sample=Alto_staccatissimo_PP_B4_RR7.opus
tune=+11
</region>

<region>
hivel=42
key=C#3
lovel=0
offset=6486
sample=Alto_staccatissimo_PP_C#3_RR7.opus
tune=-20
</region>

<region>
hivel=42
key=C#4
lovel=0
sample=Alto_staccatissimo_PP_C#4_RR7.opus
tune=+11
</region>

<region>
hivel=42
key=C#5
lovel=0
sample=Alto_staccatissimo_PP_C#5_RR7.opus
tune=+5
</region>

<region>
hivel=42
key=C4
lovel=0
offset=266
sample=Alto_staccatissimo_PP_C4_RR7.opus
tune=+6
</region>

<region>
hivel=42
key=C5
lovel=0
sample=Alto_staccatissimo_PP_C5_RR7.opus
tune=+24
</region>

<region>
hivel=42
key=D#3
lovel=0
offset=3812
sample=Alto_staccatissimo_PP_D#3_RR7.opus
tune=+21
</region>

<region>
hivel=42
key=D#4
lovel=0
offset=162
sample=Alto_staccatissimo_PP_D#4_RR7.opus
tune=+17
</region>

<region>
hivel=42
key=D#5
lovel=0
sample=Alto_staccatissimo_PP_D#5_RR7.opus
tune=+16
</region>

<region>
hivel=42
key=D3
lovel=0
offset=4264
sample=Alto_staccatissimo_PP_D3_RR7.opus
tune=-10
</region>

<region>
hivel=42
key=D4
lovel=0
sample=Alto_staccatissimo_PP_D4_RR7.opus
tune=+4
</region>

<region>
hivel=42
key=D5
lovel=0
sample=Alto_staccatissimo_PP_D5_RR7.opus
tune=+34
</region>

<region>
hivel=42
key=E3
lovel=0
offset=5036
sample=Alto_staccatissimo_PP_E3_RR7.opus
tune=+10
</region>

<region>
hivel=42
key=E4
lovel=0
sample=Alto_staccatissimo_PP_E4_RR7.opus
tune=+13
</region>

<region>
hivel=42
key=E5
lovel=0
sample=Alto_staccatissimo_PP_E5_RR7.opus
tune=+16
</region>

<region>
hivel=42
key=F#3
lovel=0
offset=1448
sample=Alto_staccatissimo_PP_F#3_RR7.opus
tune=+3
</region>

<region>
hivel=42
key=F#4
lovel=0
offset=310
sample=Alto_staccatissimo_PP_F#4_RR7.opus
tune=+17
</region>

<region>
hivel=42
key=F#5
lovel=0
sample=Alto_staccatissimo_PP_F#5_RR7.opus
tune=-25
</region>

<region>
hivel=42
key=F3
lovel=0
offset=1823
sample=Alto_staccatissimo_PP_F3_RR7.opus
tune=+24
</region>

<region>
hivel=42
key=F4
lovel=0
offset=1086
sample=Alto_staccatissimo_PP_F4_RR7.opus
tune=+43
</region>

<region>
hivel=42
key=F5
lovel=0
sample=Alto_staccatissimo_PP_F5_RR7.opus
tune=+7
</region>

<region>
hivel=42
key=G#3
lovel=0
offset=500
sample=Alto_staccatissimo_PP_G#3_RR7.opus
tune=+1
</region>

<region>
hivel=42
key=G#4
lovel=0
offset=366
sample=Alto_staccatissimo_PP_G#4_RR7.opus
tune=+1
</region>

<region>
hivel=42
key=G#5
lovel=0
sample=Alto_staccatissimo_PP_G#5_RR7.opus
tune=+8
</region>

<region>
hivel=42
key=G3
lovel=0
offset=1810
sample=Alto_staccatissimo_PP_G3_RR7.opus
tune=+8
</region>

<region>
hivel=42
key=G4
lovel=0
offset=993
sample=Alto_staccatissimo_PP_G4_RR7.opus
tune=-4
</region>

<region>
hivel=42
key=G5
lovel=0
sample=Alto_staccatissimo_PP_G5_RR7.opus
tune=+3
</region>
</group>

<group>
group_label=RR8
seq_length=8
seq_position=8

<region>
hivel=127
key=A#3
lovel=85
offset=358
sample=Alto_staccatissimo_FF_A#3_RR8.opus
tune=-11
</region>

<region>
hivel=127
key=A#4
lovel=85
offset=227
sample=Alto_staccatissimo_FF_A#4_RR8.opus
tune=+7
</region>

<region>
hivel=127
key=A3
lovel=85
offset=649
sample=Alto_staccatissimo_FF_A3_RR8.opus
tune=+2
</region>

<region>
hivel=127
key=A4
lovel=85
offset=665
sample=Alto_staccatissimo_FF_A4_RR8.opus
tune=+6
</region>

<region>
hikey=B5
hivel=127
lokey=A5
lovel=85
pitch_keycenter=A5
sample=Alto_staccatissimo_FF_A5_RR8.opus
tune=+23
</region>

<region>
hivel=127
key=B3
lovel=85
offset=468
sample=Alto_staccatissimo_FF_B3_RR8.opus
tune=+1
</region>

<region>
hivel=127
key=B4
lovel=85
offset=15
sample=Alto_staccatissimo_FF_B4_RR8.opus
tune=+1
</region>

<region>
hivel=127
key=C#3
lovel=85
offset=87
sample=Alto_staccatissimo_FF_C#3_RR8.opus
tune=+3
</region>

<region>
hivel=127
key=C#4
lovel=85
sample=Alto_staccatissimo_FF_C#4_RR8.opus
tune=+8
</region>

<region>
hivel=127
key=C#5
lovel=85
sample=Alto_staccatissimo_FF_C#5_RR8.opus
tune=+10
</region>

<region>
hivel=127
key=C4
lovel=85
sample=Alto_staccatissimo_FF_C4_RR8.opus
tune=+3
</region>

<region>
hivel=127
key=C5
lovel=85
sample=Alto_staccatissimo_FF_C5_RR8.opus
tune=+8
</region>

<region>
hivel=127
key=D#3
lovel=85
sample=Alto_staccatissimo_FF_D#3_RR8.opus
tune=+36
</region>

<region>
hivel=127
key=D#4
lovel=85
offset=23
sample=Alto_staccatissimo_FF_D#4_RR8.opus
tune=+9
</region>

<region>
hivel=127
key=D#5
lovel=85
sample=Alto_staccatissimo_FF_D#5_RR8.opus
tune=+15
</region>

<region>
hivel=127
key=D3
lovel=85
offset=67
sample=Alto_staccatissimo_FF_D3_RR8.opus
tune=+2
</region>

<region>
hivel=127
key=D4
lovel=85
offset=29
sample=Alto_staccatissimo_FF_D4_RR8.opus
tune=+14
</region>

<region>
hivel=127
key=D5
lovel=85
sample=Alto_staccatissimo_FF_D5_RR8.opus
tune=+6
</region>

<region>
hivel=127
key=E3
lovel=85
offset=61
sample=Alto_staccatissimo_FF_E3_RR8.opus
tune=-3
</region>

<region>
hivel=127
key=E4
lovel=85
sample=Alto_staccatissimo_FF_E4_RR8.opus
tune=+10
</region>

<region>
hivel=127
key=E5
lovel=85
sample=Alto_staccatissimo_FF_E5_RR8.opus
tune=+10
</region>

<region>
hivel=127
key=F#3
lovel=85
offset=1290
sample=Alto_staccatissimo_FF_F#3_RR8.opus
</region>

<region>
hivel=127
key=F#4
lovel=85
offset=196
sample=Alto_staccatissimo_FF_F#4_RR8.opus
tune=+7
</region>

<region>
hivel=127
key=F#5
lovel=85
sample=Alto_staccatissimo_FF_F#5_RR8.opus
tune=+7
</region>

<region>
hivel=127
key=F3
lovel=85
sample=Alto_staccatissimo_FF_F3_RR8.opus
tune=+34
</region>

<region>
hivel=127
key=F4
lovel=85
offset=235
sample=Alto_staccatissimo_FF_F4_RR8.opus
tune=-11
</region>

<region>
hivel=127
key=F5
lovel=85
sample=Alto_staccatissimo_FF_F5_RR8.opus
tune=+7
</region>

<region>
hivel=127
key=G#3
lovel=85
offset=1245
sample=Alto_staccatissimo_FF_G#3_RR8.opus
tune=+3
</region>

<region>
hivel=127
key=G#4
lovel=85
offset=150
sample=Alto_staccatissimo_FF_G#4_RR8.opus
tune=+1
</region>

<region>
hivel=127
key=G#5
lovel=85
sample=Alto_staccatissimo_FF_G#5_RR8.opus
tune=+5
</region>

<region>
hivel=127
key=G3
lovel=85
offset=737
sample=Alto_staccatissimo_FF_G3_RR8.opus
tune=+2
</region>

<region>
hivel=127
key=G4
lovel=85
offset=294
sample=Alto_staccatissimo_FF_G4_RR8.opus
tune=+5
</region>

<region>
hivel=127
key=G5
lovel=85
sample=Alto_staccatissimo_FF_G5_RR8.opus
tune=+2
</region>

<region>
hivel=84
key=A#3
lovel=43
offset=784
sample=Alto_staccatissimo_MF_A#3_RR8.opus
tune=+6
</region>

<region>
hivel=84
key=A#4
lovel=43
offset=141
sample=Alto_staccatissimo_MF_A#4_RR8.opus
tune=+4
</region>

<region>
hivel=84
key=A3
lovel=43
offset=1353
sample=Alto_staccatissimo_MF_A3_RR8.opus
tune=+4
</region>

<region>
hivel=84
key=A4
lovel=43
offset=637
sample=Alto_staccatissimo_MF_A4_RR8.opus
tune=+3
</region>

<region>
hikey=B5
hivel=84
lokey=A5
lovel=43
offset=12
pitch_keycenter=A5
sample=Alto_staccatissimo_MF_A5_RR8.opus
tune=+4
</region>

<region>
hivel=84
key=B3
lovel=43
offset=313
sample=Alto_staccatissimo_MF_B3_RR8.opus
tune=+12
</region>

<region>
hivel=84
key=B4
lovel=43
offset=295
sample=Alto_staccatissimo_MF_B4_RR8.opus
tune=+7
</region>

<region>
hivel=84
key=C#3
lovel=43
sample=Alto_staccatissimo_MF_C#3_RR8.opus
tune=-2
</region>

<region>
hivel=84
key=C#4
lovel=43
offset=66
sample=Alto_staccatissimo_MF_C#4_RR8.opus
tune=-2
</region>

<region>
hivel=84
key=C#5
lovel=43
sample=Alto_staccatissimo_MF_C#5_RR8.opus
tune=+5
</region>

<region>
hivel=84
key=C4
lovel=43
offset=95
sample=Alto_staccatissimo_MF_C4_RR8.opus
</region>

<region>
hivel=84
key=C5
lovel=43
sample=Alto_staccatissimo_MF_C5_RR8.opus
tune=+2
</region>

<region>
hivel=84
key=D#3
lovel=43
sample=Alto_staccatissimo_MF_D#3_RR8.opus
tune=-4
</region>

<region>
hivel=84
key=D#4
lovel=43
offset=162
sample=Alto_staccatissimo_MF_D#4_RR8.opus
tune=+7
</region>

<region>
hivel=84
key=D#5
lovel=43
sample=Alto_staccatissimo_MF_D#5_RR8.opus
tune=+1
</region>

<region>
hivel=84
key=D3
lovel=43
sample=Alto_staccatissimo_MF_D3_RR8.opus
tune=+2
</region>

<region>
hivel=84
key=D4
lovel=43
offset=58
sample=Alto_staccatissimo_MF_D4_RR8.opus
tune=+17
</region>

<region>
hivel=84
key=D5
lovel=43
sample=Alto_staccatissimo_MF_D5_RR8.opus
tune=+12
</region>

<region>
hivel=84
key=E3
lovel=43
sample=Alto_staccatissimo_MF_E3_RR8.opus
</region>

<region>
hivel=84
key=E4
lovel=43
sample=Alto_staccatissimo_MF_E4_RR8.opus
tune=+11
</region>

<region>
hivel=84
key=E5
lovel=43
sample=Alto_staccatissimo_MF_E5_RR8.opus
tune=+3
</region>

<region>
hivel=84
key=F#3
lovel=43
offset=6862
sample=Alto_staccatissimo_MF_F#3_RR8.opus
tune=+4
</region>

<region>
hivel=84
key=F#4
lovel=43
offset=1033
sample=Alto_staccatissimo_MF_F#4_RR8.opus
tune=+1
</region>

<region>
hivel=84
key=F#5
lovel=43
sample=Alto_staccatissimo_MF_F#5_RR8.opus
tune=+5
</region>

<region>
hivel=84
key=F3
lovel=43
offset=2355
sample=Alto_staccatissimo_MF_F3_RR8.opus
tune=+11
</region>

<region>
hivel=84
key=F4
lovel=43
offset=343
sample=Alto_staccatissimo_MF_F4_RR8.opus
tune=+18
</region>

<region>
hivel=84
key=F5
lovel=43
sample=Alto_staccatissimo_MF_F5_RR8.opus
tune=+16
</region>

<region>
hivel=84
key=G#3
lovel=43
offset=494
sample=Alto_staccatissimo_MF_G#3_RR8.opus
</region>

<region>
hivel=84
key=G#4
lovel=43
offset=701
sample=Alto_staccatissimo_MF_G#4_RR8.opus
tune=+8
</region>

<region>
hivel=84
key=G#5
lovel=43
sample=Alto_staccatissimo_MF_G#5_RR8.opus
tune=+4
</region>

<region>
hivel=84
key=G3
lovel=43
offset=5175
sample=Alto_staccatissimo_MF_G3_RR8.opus
</region>

<region>
hivel=84
key=G4
lovel=43
offset=1160
sample=Alto_staccatissimo_MF_G4_RR8.opus
tune=+1
</region>

<region>
hivel=84
key=G5
lovel=43
sample=Alto_staccatissimo_MF_G5_RR8.opus
tune=+8
</region>

<region>
hivel=42
key=A#3
lovel=0
offset=1189
sample=Alto_staccatissimo_PP_A#3_RR8.opus
tune=+11
</region>

<region>
hivel=42
key=A#4
lovel=0
offset=154
sample=Alto_staccatissimo_PP_A#4_RR8.opus
tune=+5
</region>

<region>
hivel=42
key=A3
lovel=0
offset=652
sample=Alto_staccatissimo_PP_A3_RR8.opus
tune=+9
</region>

<region>
hivel=42
key=A4
lovel=0
offset=314
sample=Alto_staccatissimo_PP_A4_RR8.opus
tune=+5
</region>

<region>
hikey=B5
hivel=42
lokey=A5
lovel=0
pitch_keycenter=A5
sample=Alto_staccatissimo_PP_A5_RR8.opus
tune=+3
</region>

<region>
hivel=42
key=B3
lovel=0
offset=153
sample=Alto_staccatissimo_PP_B3_RR8.opus
</region>

<region>
hivel=42
key=B4
lovel=0
sample=Alto_staccatissimo_PP_B4_RR8.opus
tune=+8
</region>

<region>
hivel=42
key=C#3
lovel=0
offset=6010
sample=Alto_staccatissimo_PP_C#3_RR8.opus
tune=-18
</region>

<region>
hivel=42
key=C#4
lovel=0
offset=56
sample=Alto_staccatissimo_PP_C#4_RR8.opus
tune=+3
</region>

<region>
hivel=42
key=C#5
lovel=0
sample=Alto_staccatissimo_PP_C#5_RR8.opus
tune=+10
</region>

<region>
hivel=42
key=C4
lovel=0
offset=95
sample=Alto_staccatissimo_PP_C4_RR8.opus
</region>

<region>
hivel=42
key=C5
lovel=0
sample=Alto_staccatissimo_PP_C5_RR8.opus
tune=+36
</region>

<region>
hivel=42
key=D#3
lovel=0
offset=3791
sample=Alto_staccatissimo_PP_D#3_RR8.opus
tune=+7
</region>

<region>
hivel=42
key=D#4
lovel=0
offset=145
sample=Alto_staccatissimo_PP_D#4_RR8.opus
tune=+26
</region>

<region>
hivel=42
key=D#5
lovel=0
sample=Alto_staccatissimo_PP_D#5_RR8.opus
tune=+10
</region>

<region>
hivel=42
key=D3
lovel=0
offset=5671
sample=Alto_staccatissimo_PP_D3_RR8.opus
tune=-10
</region>

<region>
hivel=42
key=D4
lovel=0
offset=27
sample=Alto_staccatissimo_PP_D4_RR8.opus
tune=+10
</region>

<region>
hivel=42
key=D5
lovel=0
sample=Alto_staccatissimo_PP_D5_RR8.opus
tune=+21
</region>

<region>
hivel=42
key=E3
lovel=0
offset=5621
sample=Alto_staccatissimo_PP_E3_RR8.opus
tune=+6
</region>

<region>
hivel=42
key=E4
lovel=0
sample=Alto_staccatissimo_PP_E4_RR8.opus
tune=+6
</region>

<region>
hivel=42
key=E5
lovel=0
sample=Alto_staccatissimo_PP_E5_RR8.opus
tune=+11
</region>

<region>
hivel=42
key=F#3
lovel=0
offset=1450
sample=Alto_staccatissimo_PP_F#3_RR8.opus
tune=-2
</region>

<region>
hivel=42
key=F#4
lovel=0
offset=462
sample=Alto_staccatissimo_PP_F#4_RR8.opus
tune=+14
</region>

<region>
hivel=42
key=F#5
lovel=0
sample=Alto_staccatissimo_PP_F#5_RR8.opus
</region>

<region>
hivel=42
key=F3
lovel=0
offset=1248
sample=Alto_staccatissimo_PP_F3_RR8.opus
tune=-9
</region>

<region>
hivel=42
key=F4
lovel=0
offset=667
sample=Alto_staccatissimo_PP_F4_RR8.opus
tune=+17
</region>

<region>
hivel=42
key=F5
lovel=0
sample=Alto_staccatissimo_PP_F5_RR8.opus
tune=-1
</region>

<region>
hivel=42
key=G#3
lovel=0
offset=719
sample=Alto_staccatissimo_PP_G#3_RR8.opus
tune=+4
</region>

<region>
hivel=42
key=G#4
lovel=0
offset=221
sample=Alto_staccatissimo_PP_G#4_RR8.opus
tune=+1
</region>

<region>
hivel=42
key=G#5
lovel=0
sample=Alto_staccatissimo_PP_G#5_RR8.opus
tune=+1
</region>

<region>
hivel=42
key=G3
lovel=0
offset=1797
sample=Alto_staccatissimo_PP_G3_RR8.opus
tune=+3
</region>

<region>
hivel=42
key=G4
lovel=0
offset=652
sample=Alto_staccatissimo_PP_G4_RR8.opus
tune=-8
</region>

<region>
hivel=42
key=G5
lovel=0
sample=Alto_staccatissimo_PP_G5_RR8.opus
tune=+5
</region>
</group>